<svg version="1.1" viewBox="0.0 0.0 650.0 496.0" fill="none" stroke="none" stroke-linecap="square" stroke-miterlimit="10" width="650" height="496" xmlns:xlink="http://www.w3.org/1999/xlink" xmlns="http://www.w3.org/2000/svg"><path fill="#ffffff" d="M0 0L650.0 0L650.0 496.0L0 496.0L0 0Z" fill-rule="nonzero"/><path stroke="#333333" stroke-width="1.0" stroke-linecap="butt" d="M54.5 451.5L492.5 451.5" fill-rule="nonzero"/><path stroke="#cccccc" stroke-width="1.0" stroke-linecap="butt" d="M54.5 375.5L492.5 375.5" fill-rule="nonzero"/><path stroke="#cccccc" stroke-width="1.0" stroke-linecap="butt" d="M54.5 299.5L492.5 299.5" fill-rule="nonzero"/><path stroke="#cccccc" stroke-width="1.0" stroke-linecap="butt" d="M54.5 223.5L492.5 223.5" fill-rule="nonzero"/><path stroke="#cccccc" stroke-width="1.0" stroke-linecap="butt" d="M54.5 148.5L492.5 148.5" fill-rule="nonzero"/><path stroke="#cccccc" stroke-width="1.0" stroke-linecap="butt" d="M54.5 72.5L492.5 72.5" fill-rule="nonzero"/><clipPath id="id_0"><path d="M54.8 72.333336L492.1422 72.333336L492.1422 451.2L54.8 451.2L54.8 72.333336Z" clip-rule="nonzero"/></clipPath><path stroke="#000000" stroke-width="2.0" stroke-linecap="butt" stroke-opacity="0.0" clip-path="url(#id_0)" d="M109.0 451.0L84.0 451.0L84.0 377.0C84.0 375.89542 84.89543 375.0 86.0 375.0L107.0 375.0C108.10457 375.0 109.0 375.89542 109.0 377.0Z" fill-rule="nonzero"/><path fill="#4285f4" clip-path="url(#id_0)" d="M109.0 451.0L84.0 451.0L84.0 377.0C84.0 375.89542 84.89543 375.0 86.0 375.0L107.0 375.0C108.10457 375.0 109.0 375.89542 109.0 377.0Z" fill-rule="nonzero"/><path stroke="#000000" stroke-width="2.0" stroke-linecap="butt" stroke-opacity="0.0" clip-path="url(#id_0)" d="M191.0 451.0L166.0 451.0L166.0 181.0C166.0 179.89543 166.89543 179.0 168.0 179.0L189.0 179.0C190.10457 179.0 191.0 179.89543 191.0 181.0Z" fill-rule="nonzero"/><path fill="#4285f4" clip-path="url(#id_0)" d="M191.0 451.0L166.0 451.0L166.0 181.0C166.0 179.89543 166.89543 179.0 168.0 179.0L189.0 179.0C190.10457 179.0 191.0 179.89543 191.0 181.0Z" fill-rule="nonzero"/><path stroke="#000000" stroke-width="2.0" stroke-linecap="butt" stroke-opacity="0.0" clip-path="url(#id_0)" d="M272.0 451.0L247.0 451.0L247.0 196.0C247.0 194.89543 247.89543 194.0 249.0 194.0L270.0 194.0C271.10458 194.0 272.0 194.89543 272.0 196.0Z" fill-rule="nonzero"/><path fill="#4285f4" clip-path="url(#id_0)" d="M272.0 451.0L247.0 451.0L247.0 196.0C247.0 194.89543 247.89543 194.0 249.0 194.0L270.0 194.0C271.10458 194.0 272.0 194.89543 272.0 196.0Z" fill-rule="nonzero"/><path stroke="#000000" stroke-width="2.0" stroke-linecap="butt" stroke-opacity="0.0" clip-path="url(#id_0)" d="M354.0 451.0L329.0 451.0L329.0 170.0C329.0 168.89543 329.89542 168.0 331.0 168.0L352.0 168.0C353.10458 168.0 354.0 168.89543 354.0 170.0Z" fill-rule="nonzero"/><path fill="#4285f4" clip-path="url(#id_0)" d="M354.0 451.0L329.0 451.0L329.0 170.0C329.0 168.89543 329.89542 168.0 331.0 168.0L352.0 168.0C353.10458 168.0 354.0 168.89543 354.0 170.0Z" fill-rule="nonzero"/><path stroke="#000000" stroke-width="2.0" stroke-linecap="butt" stroke-opacity="0.0" clip-path="url(#id_0)" d="M436.0 451.0L411.0 451.0L411.0 94.0C411.0 92.89543 411.89542 92.0 413.0 92.0L434.0 92.0C435.10458 92.0 436.0 92.89543 436.0 94.0Z" fill-rule="nonzero"/><path fill="#4285f4" clip-path="url(#id_0)" d="M436.0 451.0L411.0 451.0L411.0 94.0C411.0 92.89543 411.89542 92.0 413.0 92.0L434.0 92.0C435.10458 92.0 436.0 92.89543 436.0 94.0Z" fill-rule="nonzero"/><path stroke="#000000" stroke-width="2.0" stroke-linecap="butt" stroke-opacity="0.0" clip-path="url(#id_0)" d="M136.0 451.0L111.0 451.0L111.0 450.0C111.0 449.44772 111.447716 449.0 112.0 449.0L135.0 449.0C135.55229 449.0 136.0 449.44772 136.0 450.0Z" fill-rule="nonzero"/><path fill="#ea4335" clip-path="url(#id_0)" d="M136.0 451.0L111.0 451.0L111.0 450.0C111.0 449.44772 111.447716 449.0 112.0 449.0L135.0 449.0C135.55229 449.0 136.0 449.44772 136.0 450.0Z" fill-rule="nonzero"/><path stroke="#000000" stroke-width="2.0" stroke-linecap="butt" stroke-opacity="0.0" clip-path="url(#id_0)" d="M218.0 451.0L193.0 451.0L193.0 431.0C193.0 429.89542 193.89543 429.0 195.0 429.0L216.0 429.0C217.10457 429.0 218.0 429.89542 218.0 431.0Z" fill-rule="nonzero"/><path fill="#ea4335" clip-path="url(#id_0)" d="M218.0 451.0L193.0 451.0L193.0 431.0C193.0 429.89542 193.89543 429.0 195.0 429.0L216.0 429.0C217.10457 429.0 218.0 429.89542 218.0 431.0Z" fill-rule="nonzero"/><path stroke="#000000" stroke-width="2.0" stroke-linecap="butt" stroke-opacity="0.0" clip-path="url(#id_0)" d="M299.0 451.0L274.0 451.0L274.0 431.0C274.0 429.89542 274.89542 429.0 276.0 429.0L297.0 429.0C298.10458 429.0 299.0 429.89542 299.0 431.0Z" fill-rule="nonzero"/><path fill="#ea4335" clip-path="url(#id_0)" d="M299.0 451.0L274.0 451.0L274.0 431.0C274.0 429.89542 274.89542 429.0 276.0 429.0L297.0 429.0C298.10458 429.0 299.0 429.89542 299.0 431.0Z" fill-rule="nonzero"/><path stroke="#000000" stroke-width="2.0" stroke-linecap="butt" stroke-opacity="0.0" clip-path="url(#id_0)" d="M381.0 451.0L356.0 451.0L356.0 400.0C356.0 398.89542 356.89542 398.0 358.0 398.0L379.0 398.0C380.10458 398.0 381.0 398.89542 381.0 400.0Z" fill-rule="nonzero"/><path fill="#ea4335" clip-path="url(#id_0)" d="M381.0 451.0L356.0 451.0L356.0 400.0C356.0 398.89542 356.89542 398.0 358.0 398.0L379.0 398.0C380.10458 398.0 381.0 398.89542 381.0 400.0Z" fill-rule="nonzero"/><path stroke="#000000" stroke-width="2.0" stroke-linecap="butt" stroke-opacity="0.0" clip-path="url(#id_0)" d="M463.0 451.0L438.0 451.0L438.0 374.0C438.0 372.89542 438.89542 372.0 440.0 372.0L461.0 372.0C462.10458 372.0 463.0 372.89542 463.0 374.0Z" fill-rule="nonzero"/><path fill="#ea4335" clip-path="url(#id_0)" d="M463.0 451.0L438.0 451.0L438.0 374.0C438.0 372.89542 438.89542 372.0 440.0 372.0L461.0 372.0C462.10458 372.0 463.0 372.89542 463.0 374.0Z" fill-rule="nonzero"/><path fill="#000000" d="M42.3 450.96564Q42.3 449.4344 42.6125 448.5125Q42.925 447.575 43.534374 447.075Q44.159374 446.575 45.096874 446.575Q45.784374 446.575 46.3 446.85626Q46.83125 447.1375 47.175 447.66876Q47.51875 448.1844 47.70625 448.9344Q47.89375 449.6844 47.89375 450.96564Q47.89375 452.48126 47.58125 453.40314Q47.284374 454.325 46.659374 454.84064Q46.05 455.34064 45.096874 455.34064Q43.8625 455.34064 43.14375 454.45Q42.3 453.3875 42.3 450.96564ZM43.378124 450.96564Q43.378124 453.075 43.878124 453.77814Q44.378124 454.48126 45.096874 454.48126Q45.83125 454.48126 46.315624 453.77814Q46.815624 453.075 46.815624 450.96564Q46.815624 448.84064 46.315624 448.15314Q45.83125 447.45 45.08125 447.45Q44.3625 447.45 43.925 448.0594Q43.378124 448.84064 43.378124 450.96564Z" fill-rule="nonzero"/><path fill="#000000" d="M25.3 375.1923Q25.3 373.66104 25.6125 372.73917Q25.925 371.80167 26.534374 371.30167Q27.159374 370.80167 28.096874 370.80167Q28.784374 370.80167 29.3 371.08292Q29.83125 371.36417 30.175 371.89542Q30.51875 372.41104 30.70625 373.16104Q30.89375 373.91104 30.89375 375.1923Q30.89375 376.70792 30.58125 377.6298Q30.284374 378.55167 29.659374 379.0673Q29.05 379.5673 28.096874 379.5673Q26.8625 379.5673 26.14375 378.67667Q25.3 377.61417 25.3 375.1923ZM26.378124 375.1923Q26.378124 377.30167 26.878124 378.0048Q27.378124 378.70792 28.096874 378.70792Q28.83125 378.70792 29.315624 378.0048Q29.815624 377.30167 29.815624 375.1923Q29.815624 373.0673 29.315624 372.3798Q28.83125 371.67667 28.08125 371.67667Q27.3625 371.67667 26.925 372.28604Q26.378124 373.0673 26.378124 375.1923ZM32.89375 379.42667L32.89375 378.22354L34.096874 378.22354L34.096874 379.42667L32.89375 379.42667ZM40.846874 378.41104L40.846874 379.42667L35.159374 379.42667Q35.159374 379.05167 35.284374 378.6923Q35.503124 378.11417 35.971874 377.55167Q36.45625 376.98917 37.3625 376.2548Q38.76875 375.09854 39.253124 374.42667Q39.753124 373.7548 39.753124 373.16104Q39.753124 372.53604 39.3 372.11417Q38.846874 371.67667 38.128124 371.67667Q37.3625 371.67667 36.909374 372.1298Q36.45625 372.58292 36.440624 373.39542L35.3625 373.28604Q35.471874 372.0673 36.190624 371.4423Q36.925 370.80167 38.159374 370.80167Q39.39375 370.80167 40.1125 371.48917Q40.83125 372.17667 40.83125 373.1923Q40.83125 373.70792 40.6125 374.20792Q40.409374 374.6923 39.909374 375.2548Q39.425 375.80167 38.3 376.7548Q37.346874 377.55167 37.065624 377.84854Q36.8 378.1298 36.628124 378.41104L40.846874 378.41104ZM42.3 377.17667L43.409374 377.08292Q43.534374 377.89542 43.971874 378.30167Q44.425 378.70792 45.065624 378.70792Q45.815624 378.70792 46.346874 378.1298Q46.878124 377.55167 46.878124 376.61417Q46.878124 375.70792 46.3625 375.1923Q45.8625 374.66104 45.034374 374.66104Q44.534374 374.66104 44.1125 374.89542Q43.70625 375.1298 43.471874 375.48917L42.4875 375.36417L43.315624 370.95792L47.596874 370.95792L47.596874 371.95792L44.159374 371.95792L43.70625 374.27042Q44.471874 373.72354 45.315624 373.72354Q46.440624 373.72354 47.20625 374.5048Q47.9875 375.28604 47.9875 376.52042Q47.9875 377.67667 47.315624 378.53604Q46.4875 379.5673 45.065624 379.5673Q43.89375 379.5673 43.14375 378.91104Q42.409374 378.2548 42.3 377.17667Z" fill-rule="nonzero"/><path fill="#000000" d="M32.3 299.41895Q32.3 297.8877 32.6125 296.96582Q32.925 296.02832 33.534374 295.52832Q34.159374 295.02832 35.096874 295.02832Q35.784374 295.02832 36.3 295.30957Q36.83125 295.59082 37.175 296.12207Q37.51875 296.6377 37.70625 297.3877Q37.89375 298.1377 37.89375 299.41895Q37.89375 300.93457 37.58125 301.85645Q37.284374 302.77832 36.659374 303.29395Q36.05 303.79395 35.096874 303.79395Q33.8625 303.79395 33.14375 302.90332Q32.3 301.84082 32.3 299.41895ZM33.378124 299.41895Q33.378124 301.52832 33.878124 302.23145Q34.378124 302.93457 35.096874 302.93457Q35.83125 302.93457 36.315624 302.23145Q36.815624 301.52832 36.815624 299.41895Q36.815624 297.29395 36.315624 296.60645Q35.83125 295.90332 35.08125 295.90332Q34.3625 295.90332 33.925 296.5127Q33.378124 297.29395 33.378124 299.41895ZM39.89375 303.65332L39.89375 302.4502L41.096874 302.4502L41.096874 303.65332L39.89375 303.65332ZM42.3 301.40332L43.409374 301.30957Q43.534374 302.12207 43.971874 302.52832Q44.425 302.93457 45.065624 302.93457Q45.815624 302.93457 46.346874 302.35645Q46.878124 301.77832 46.878124 300.84082Q46.878124 299.93457 46.3625 299.41895Q45.8625 298.8877 45.034374 298.8877Q44.534374 298.8877 44.1125 299.12207Q43.70625 299.35645 43.471874 299.71582L42.4875 299.59082L43.315624 295.18457L47.596874 295.18457L47.596874 296.18457L44.159374 296.18457L43.70625 298.49707Q44.471874 297.9502 45.315624 297.9502Q46.440624 297.9502 47.20625 298.73145Q47.9875 299.5127 47.9875 300.74707Q47.9875 301.90332 47.315624 302.7627Q46.4875 303.79395 45.065624 303.79395Q43.89375 303.79395 43.14375 303.1377Q42.409374 302.48145 42.3 301.40332Z" fill-rule="nonzero"/><path fill="#000000" d="M25.3 223.64563Q25.3 222.11438 25.6125 221.1925Q25.925 220.255 26.534374 219.755Q27.159374 219.255 28.096874 219.255Q28.784374 219.255 29.3 219.53625Q29.83125 219.8175 30.175 220.34875Q30.51875 220.86438 30.70625 221.61438Q30.89375 222.36438 30.89375 223.64563Q30.89375 225.16125 30.58125 226.08313Q30.284374 227.005 29.659374 227.52063Q29.05 228.02063 28.096874 228.02063Q26.8625 228.02063 26.14375 227.13Q25.3 226.0675 25.3 223.64563ZM26.378124 223.64563Q26.378124 225.755 26.878124 226.45813Q27.378124 227.16125 28.096874 227.16125Q28.83125 227.16125 29.315624 226.45813Q29.815624 225.755 29.815624 223.64563Q29.815624 221.52063 29.315624 220.83313Q28.83125 220.13 28.08125 220.13Q27.3625 220.13 26.925 220.73938Q26.378124 221.52063 26.378124 223.64563ZM32.89375 227.88L32.89375 226.67688L34.096874 226.67688L34.096874 227.88L32.89375 227.88ZM35.3625 220.41125L35.3625 219.39563L40.925 219.39563L40.925 220.22375Q40.1125 221.09875 39.3 222.55188Q38.503124 223.98938 38.065624 225.52063Q37.7375 226.59875 37.659374 227.88L36.565624 227.88Q36.58125 226.86438 36.95625 225.42688Q37.346874 223.98938 38.05 222.66125Q38.76875 221.33313 39.58125 220.41125L35.3625 220.41125ZM42.3 225.63L43.409374 225.53625Q43.534374 226.34875 43.971874 226.755Q44.425 227.16125 45.065624 227.16125Q45.815624 227.16125 46.346874 226.58313Q46.878124 226.005 46.878124 225.0675Q46.878124 224.16125 46.3625 223.64563Q45.8625 223.11438 45.034374 223.11438Q44.534374 223.11438 44.1125 223.34875Q43.70625 223.58313 43.471874 223.9425L42.4875 223.8175L43.315624 219.41125L47.596874 219.41125L47.596874 220.41125L44.159374 220.41125L43.70625 222.72375Q44.471874 222.17688 45.315624 222.17688Q46.440624 222.17688 47.20625 222.95813Q47.9875 223.73938 47.9875 224.97375Q47.9875 226.13 47.315624 226.98938Q46.4875 228.02063 45.065624 228.02063Q43.89375 228.02063 43.14375 227.36438Q42.409374 226.70813 42.3 225.63Z" fill-rule="nonzero"/><path fill="#000000" d="M46.26875 152.10667L45.221874 152.10667L45.221874 145.38792Q44.83125 145.7473 44.20625 146.1223Q43.596874 146.48167 43.1125 146.65355L43.1125 145.63792Q43.9875 145.21605 44.64375 144.63792Q45.315624 144.04417 45.596874 143.48167L46.26875 143.48167L46.26875 152.10667Z" fill-rule="nonzero"/><path fill="#000000" d="M29.26875 76.333336L28.221874 76.333336L28.221874 69.614586Q27.83125 69.97396 27.20625 70.34896Q26.596874 70.708336 26.1125 70.88021L26.1125 69.864586Q26.9875 69.44271 27.64375 68.864586Q28.315624 68.270836 28.596874 67.708336L29.26875 67.708336L29.26875 76.333336ZM32.89375 76.333336L32.89375 75.13021L34.096874 75.13021L34.096874 76.333336L32.89375 76.333336ZM40.846874 75.31771L40.846874 76.333336L35.159374 76.333336Q35.159374 75.958336 35.284374 75.59896Q35.503124 75.020836 35.971874 74.458336Q36.45625 73.895836 37.3625 73.16146Q38.76875 72.00521 39.253124 71.333336Q39.753124 70.66146 39.753124 70.06771Q39.753124 69.44271 39.3 69.020836Q38.846874 68.583336 38.128124 68.583336Q37.3625 68.583336 36.909374 69.03646Q36.45625 69.489586 36.440624 70.302086L35.3625 70.19271Q35.471874 68.97396 36.190624 68.34896Q36.925 67.708336 38.159374 67.708336Q39.39375 67.708336 40.1125 68.395836Q40.83125 69.083336 40.83125 70.09896Q40.83125 70.614586 40.6125 71.114586Q40.409374 71.59896 39.909374 72.16146Q39.425 72.708336 38.3 73.66146Q37.346874 74.458336 37.065624 74.75521Q36.8 75.03646 36.628124 75.31771L40.846874 75.31771ZM42.3 74.083336L43.409374 73.989586Q43.534374 74.802086 43.971874 75.208336Q44.425 75.614586 45.065624 75.614586Q45.815624 75.614586 46.346874 75.03646Q46.878124 74.458336 46.878124 73.520836Q46.878124 72.614586 46.3625 72.09896Q45.8625 71.56771 45.034374 71.56771Q44.534374 71.56771 44.1125 71.802086Q43.70625 72.03646 43.471874 72.395836L42.4875 72.270836L43.315624 67.864586L47.596874 67.864586L47.596874 68.864586L44.159374 68.864586L43.70625 71.177086Q44.471874 70.63021 45.315624 70.63021Q46.440624 70.63021 47.20625 71.41146Q47.9875 72.19271 47.9875 73.427086Q47.9875 74.583336 47.315624 75.44271Q46.4875 76.47396 45.065624 76.47396Q43.89375 76.47396 43.14375 75.81771Q42.409374 75.16146 42.3 74.083336Z" fill-rule="nonzero"/><path fill="#000000" d="M105.91619 467.27814Q106.713066 467.825 107.369316 468.075L107.04119 468.8719Q106.119316 468.52814 105.19744 467.8094Q104.244316 468.34064 103.088066 468.34064Q101.91619 468.34064 100.963066 467.77814Q100.025566 467.21564 99.50994 466.2Q98.994316 465.1844 98.994316 463.90314Q98.994316 462.6375 99.50994 461.59064Q100.025566 460.54376 100.97869 459.9969Q101.931816 459.45 103.10369 459.45Q104.29119 459.45 105.244316 460.02814Q106.213066 460.59064 106.713066 461.60626Q107.213066 462.6219 107.213066 463.90314Q107.213066 464.96564 106.88494 465.8094Q106.57244 466.65314 105.91619 467.27814ZM103.41619 465.825Q104.400566 466.10626 105.04119 466.65314Q106.04119 465.73126 106.04119 463.90314Q106.04119 462.85626 105.681816 462.075Q105.32244 461.29376 104.63494 460.8719Q103.963066 460.4344 103.119316 460.4344Q101.838066 460.4344 100.994316 461.3094Q100.16619 462.16876 100.16619 463.90314Q100.16619 465.575 100.994316 466.48126Q101.82244 467.3719 103.119316 467.3719Q103.72869 467.3719 104.25994 467.1375Q103.72869 466.79376 103.13494 466.65314L103.41619 465.825ZM108.088066 468.34064L108.588066 465.85626L107.60369 465.85626L107.60369 464.98126L108.775566 464.98126L109.19744 462.85626L107.60369 462.85626L107.60369 461.98126L109.38494 461.98126L109.88494 459.46564L110.75994 459.46564L110.25994 461.98126L112.10369 461.98126L112.619316 459.46564L113.494316 459.46564L112.994316 461.98126L113.994316 461.98126L113.994316 462.85626L112.806816 462.85626L112.369316 464.98126L113.994316 464.98126L113.994316 465.85626L112.19744 465.85626L111.681816 468.34064L110.806816 468.34064L111.306816 465.85626L109.47869 465.85626L108.963066 468.34064L108.088066 468.34064ZM109.650566 464.98126L111.494316 464.98126L111.931816 462.85626L110.088066 462.85626L109.650566 464.98126ZM118.94744 468.2L117.900566 468.2L117.900566 461.48126Q117.50994 461.84064 116.88494 462.21564Q116.275566 462.575 115.79119 462.7469L115.79119 461.73126Q116.66619 461.3094 117.32244 460.73126Q117.994316 460.1375 118.275566 459.575L118.94744 459.575L118.94744 468.2Z" fill-rule="nonzero"/><path fill="#000000" d="M187.6624 467.27814Q188.45927 467.825 189.11552 468.075L188.7874 468.8719Q187.86552 468.52814 186.94365 467.8094Q185.99052 468.34064 184.83427 468.34064Q183.6624 468.34064 182.70927 467.77814Q181.77177 467.21564 181.25615 466.2Q180.74052 465.1844 180.74052 463.90314Q180.74052 462.6375 181.25615 461.59064Q181.77177 460.54376 182.7249 459.9969Q183.67802 459.45 184.8499 459.45Q186.0374 459.45 186.99052 460.02814Q187.95927 460.59064 188.45927 461.60626Q188.95927 462.6219 188.95927 463.90314Q188.95927 464.96564 188.63115 465.8094Q188.31865 466.65314 187.6624 467.27814ZM185.1624 465.825Q186.14677 466.10626 186.7874 466.65314Q187.7874 465.73126 187.7874 463.90314Q187.7874 462.85626 187.42802 462.075Q187.06865 461.29376 186.38115 460.8719Q185.70927 460.4344 184.86552 460.4344Q183.58427 460.4344 182.74052 461.3094Q181.9124 462.16876 181.9124 463.90314Q181.9124 465.575 182.74052 466.48126Q183.56865 467.3719 184.86552 467.3719Q185.4749 467.3719 186.00615 467.1375Q185.4749 466.79376 184.88115 466.65314L185.1624 465.825ZM189.83427 468.34064L190.33427 465.85626L189.3499 465.85626L189.3499 464.98126L190.52177 464.98126L190.94365 462.85626L189.3499 462.85626L189.3499 461.98126L191.13115 461.98126L191.63115 459.46564L192.50615 459.46564L192.00615 461.98126L193.8499 461.98126L194.36552 459.46564L195.24052 459.46564L194.74052 461.98126L195.74052 461.98126L195.74052 462.85626L194.55302 462.85626L194.11552 464.98126L195.74052 464.98126L195.74052 465.85626L193.94365 465.85626L193.42802 468.34064L192.55302 468.34064L193.05302 465.85626L191.2249 465.85626L190.70927 468.34064L189.83427 468.34064ZM191.39677 464.98126L193.24052 464.98126L193.67802 462.85626L191.83427 462.85626L191.39677 464.98126ZM202.27177 467.1844L202.27177 468.2L196.58427 468.2Q196.58427 467.825 196.70927 467.46564Q196.92802 466.8875 197.39677 466.325Q197.88115 465.7625 198.7874 465.02814Q200.19365 463.8719 200.67802 463.2Q201.17802 462.52814 201.17802 461.9344Q201.17802 461.3094 200.7249 460.8875Q200.27177 460.45 199.55302 460.45Q198.7874 460.45 198.33427 460.90314Q197.88115 461.35626 197.86552 462.16876L196.7874 462.0594Q196.89677 460.84064 197.61552 460.21564Q198.3499 459.575 199.58427 459.575Q200.81865 459.575 201.5374 460.2625Q202.25615 460.95 202.25615 461.96564Q202.25615 462.48126 202.0374 462.98126Q201.83427 463.46564 201.33427 464.02814Q200.8499 464.575 199.7249 465.52814Q198.77177 466.325 198.49052 466.6219Q198.2249 466.90314 198.05302 467.1844L202.27177 467.1844Z" fill-rule="nonzero"/><path fill="#000000" d="M269.4086 467.27814Q270.20547 467.825 270.86172 468.075L270.5336 468.8719Q269.61172 468.52814 268.68985 467.8094Q267.73672 468.34064 266.58047 468.34064Q265.4086 468.34064 264.45547 467.77814Q263.51797 467.21564 263.00235 466.2Q262.48672 465.1844 262.48672 463.90314Q262.48672 462.6375 263.00235 461.59064Q263.51797 460.54376 264.4711 459.9969Q265.42422 459.45 266.5961 459.45Q267.7836 459.45 268.73672 460.02814Q269.70547 460.59064 270.20547 461.60626Q270.70547 462.6219 270.70547 463.90314Q270.70547 464.96564 270.37735 465.8094Q270.06485 466.65314 269.4086 467.27814ZM266.9086 465.825Q267.89297 466.10626 268.5336 466.65314Q269.5336 465.73126 269.5336 463.90314Q269.5336 462.85626 269.17422 462.075Q268.81485 461.29376 268.12735 460.8719Q267.45547 460.4344 266.61172 460.4344Q265.33047 460.4344 264.48672 461.3094Q263.6586 462.16876 263.6586 463.90314Q263.6586 465.575 264.48672 466.48126Q265.31485 467.3719 266.61172 467.3719Q267.2211 467.3719 267.75235 467.1375Q267.2211 466.79376 266.62735 466.65314L266.9086 465.825ZM271.58047 468.34064L272.08047 465.85626L271.0961 465.85626L271.0961 464.98126L272.26797 464.98126L272.68985 462.85626L271.0961 462.85626L271.0961 461.98126L272.87735 461.98126L273.37735 459.46564L274.25235 459.46564L273.75235 461.98126L275.5961 461.98126L276.11172 459.46564L276.98672 459.46564L276.48672 461.98126L277.48672 461.98126L277.48672 462.85626L276.29922 462.85626L275.86172 464.98126L277.48672 464.98126L277.48672 465.85626L275.68985 465.85626L275.17422 468.34064L274.29922 468.34064L274.79922 465.85626L272.9711 465.85626L272.45547 468.34064L271.58047 468.34064ZM273.14297 464.98126L274.98672 464.98126L275.42422 462.85626L273.58047 462.85626L273.14297 464.98126ZM278.4711 465.9344L279.5336 465.79376Q279.70547 466.6844 280.14297 467.09064Q280.58047 467.48126 281.20547 467.48126Q281.95547 467.48126 282.4711 466.96564Q282.98672 466.45 282.98672 465.6844Q282.98672 464.96564 282.50235 464.4969Q282.0336 464.0125 281.29922 464.0125Q281.00235 464.0125 280.54922 464.1375L280.67422 463.2Q280.7836 463.21564 280.8461 463.21564Q281.51797 463.21564 282.04922 462.8719Q282.5961 462.5125 282.5961 461.77814Q282.5961 461.2 282.20547 460.825Q281.81485 460.4344 281.18985 460.4344Q280.58047 460.4344 280.1586 460.825Q279.75235 461.21564 279.64297 461.98126L278.58047 461.79376Q278.76797 460.7469 279.45547 460.16876Q280.14297 459.575 281.1586 459.575Q281.86172 459.575 282.45547 459.8875Q283.04922 460.1844 283.36172 460.7Q283.67422 461.21564 283.67422 461.8094Q283.67422 462.35626 283.37735 462.825Q283.08047 463.27814 282.50235 463.54376Q283.25235 463.71564 283.67422 464.27814Q284.0961 464.825 284.0961 465.66876Q284.0961 466.79376 283.26797 467.575Q282.45547 468.35626 281.20547 468.35626Q280.08047 468.35626 279.33047 467.6844Q278.58047 466.9969 278.4711 465.9344Z" fill-rule="nonzero"/><path fill="#000000" d="M351.15482 467.27814Q351.9517 467.825 352.60794 468.075L352.27982 468.8719Q351.35794 468.52814 350.43607 467.8094Q349.48294 468.34064 348.3267 468.34064Q347.15482 468.34064 346.2017 467.77814Q345.2642 467.21564 344.74857 466.2Q344.23294 465.1844 344.23294 463.90314Q344.23294 462.6375 344.74857 461.59064Q345.2642 460.54376 346.21732 459.9969Q347.17044 459.45 348.34232 459.45Q349.52982 459.45 350.48294 460.02814Q351.4517 460.59064 351.9517 461.60626Q352.4517 462.6219 352.4517 463.90314Q352.4517 464.96564 352.12357 465.8094Q351.81107 466.65314 351.15482 467.27814ZM348.65482 465.825Q349.6392 466.10626 350.27982 466.65314Q351.27982 465.73126 351.27982 463.90314Q351.27982 462.85626 350.92044 462.075Q350.56107 461.29376 349.87357 460.8719Q349.2017 460.4344 348.35794 460.4344Q347.0767 460.4344 346.23294 461.3094Q345.40482 462.16876 345.40482 463.90314Q345.40482 465.575 346.23294 466.48126Q347.06107 467.3719 348.35794 467.3719Q348.96732 467.3719 349.49857 467.1375Q348.96732 466.79376 348.37357 466.65314L348.65482 465.825ZM353.3267 468.34064L353.8267 465.85626L352.84232 465.85626L352.84232 464.98126L354.0142 464.98126L354.43607 462.85626L352.84232 462.85626L352.84232 461.98126L354.62357 461.98126L355.12357 459.46564L355.99857 459.46564L355.49857 461.98126L357.34232 461.98126L357.85794 459.46564L358.73294 459.46564L358.23294 461.98126L359.23294 461.98126L359.23294 462.85626L358.04544 462.85626L357.60794 464.98126L359.23294 464.98126L359.23294 465.85626L357.43607 465.85626L356.92044 468.34064L356.04544 468.34064L356.54544 465.85626L354.71732 465.85626L354.2017 468.34064L353.3267 468.34064ZM354.8892 464.98126L356.73294 464.98126L357.17044 462.85626L355.3267 462.85626L354.8892 464.98126ZM363.59232 468.2L363.59232 466.1375L359.87357 466.1375L359.87357 465.16876L363.79544 459.60626L364.65482 459.60626L364.65482 465.16876L365.81107 465.16876L365.81107 466.1375L364.65482 466.1375L364.65482 468.2L363.59232 468.2ZM363.59232 465.16876L363.59232 461.3094L360.90482 465.16876L363.59232 465.16876Z" fill-rule="nonzero"/><path fill="#000000" d="M432.90103 467.27814Q433.6979 467.825 434.35416 468.075L434.02603 468.8719Q433.10416 468.52814 432.18228 467.8094Q431.22916 468.34064 430.0729 468.34064Q428.90103 468.34064 427.9479 467.77814Q427.0104 467.21564 426.49478 466.2Q425.97916 465.1844 425.97916 463.90314Q425.97916 462.6375 426.49478 461.59064Q427.0104 460.54376 427.96353 459.9969Q428.91666 459.45 430.08853 459.45Q431.27603 459.45 432.22916 460.02814Q433.1979 460.59064 433.6979 461.60626Q434.1979 462.6219 434.1979 463.90314Q434.1979 464.96564 433.86978 465.8094Q433.55728 466.65314 432.90103 467.27814ZM430.40103 465.825Q431.3854 466.10626 432.02603 466.65314Q433.02603 465.73126 433.02603 463.90314Q433.02603 462.85626 432.66666 462.075Q432.30728 461.29376 431.61978 460.8719Q430.9479 460.4344 430.10416 460.4344Q428.8229 460.4344 427.97916 461.3094Q427.15103 462.16876 427.15103 463.90314Q427.15103 465.575 427.97916 466.48126Q428.80728 467.3719 430.10416 467.3719Q430.71353 467.3719 431.24478 467.1375Q430.71353 466.79376 430.11978 466.65314L430.40103 465.825ZM435.0729 468.34064L435.5729 465.85626L434.58853 465.85626L434.58853 464.98126L435.7604 464.98126L436.18228 462.85626L434.58853 462.85626L434.58853 461.98126L436.36978 461.98126L436.86978 459.46564L437.74478 459.46564L437.24478 461.98126L439.08853 461.98126L439.60416 459.46564L440.47916 459.46564L439.97916 461.98126L440.97916 461.98126L440.97916 462.85626L439.79166 462.85626L439.35416 464.98126L440.97916 464.98126L440.97916 465.85626L439.18228 465.85626L438.66666 468.34064L437.79166 468.34064L438.29166 465.85626L436.46353 465.85626L435.9479 468.34064L435.0729 468.34064ZM436.6354 464.98126L438.47916 464.98126L438.91666 462.85626L437.0729 462.85626L436.6354 464.98126ZM441.96353 465.95L443.0729 465.85626Q443.1979 466.66876 443.6354 467.075Q444.08853 467.48126 444.72916 467.48126Q445.47916 467.48126 446.0104 466.90314Q446.54166 466.325 446.54166 465.3875Q446.54166 464.48126 446.02603 463.96564Q445.52603 463.4344 444.6979 463.4344Q444.1979 463.4344 443.77603 463.66876Q443.36978 463.90314 443.1354 464.2625L442.15103 464.1375L442.97916 459.73126L447.2604 459.73126L447.2604 460.73126L443.8229 460.73126L443.36978 463.04376Q444.1354 462.4969 444.97916 462.4969Q446.10416 462.4969 446.86978 463.27814Q447.65103 464.0594 447.65103 465.29376Q447.65103 466.45 446.97916 467.3094Q446.15103 468.34064 444.72916 468.34064Q443.55728 468.34064 442.80728 467.6844Q442.0729 467.02814 441.96353 465.95Z" fill-rule="nonzero"/><path fill="#4285f4" d="M519.2 67.333336C519.2 66.78105 519.6477 66.333336 520.2 66.333336L530.2 66.333336C530.75226 66.333336 531.2 66.78105 531.2 67.333336L531.2 77.333336C531.2 77.88562 530.75226 78.333336 530.2 78.333336L520.2 78.333336C519.6477 78.333336 519.2 77.88562 519.2 77.333336Z" fill-rule="nonzero"/><path fill="#1a1a1a" d="M546.2625 73.31771L547.3875 73.614586Q547.02814 75.00521 546.10626 75.739586Q545.1844 76.47396 543.84064 76.47396Q542.45 76.47396 541.575 75.91146Q540.7 75.34896 540.2469 74.28646Q539.79376 73.208336 539.79376 71.97396Q539.79376 70.63021 540.3094 69.63021Q540.825 68.63021 541.7625 68.114586Q542.71564 67.59896 543.85626 67.59896Q545.1375 67.59896 546.0125 68.25521Q546.90314 68.91146 547.2469 70.09896L546.1219 70.364586Q545.825 69.427086 545.2469 69.00521Q544.6844 68.56771 543.825 68.56771Q542.84064 68.56771 542.16876 69.052086Q541.5125 69.520836 541.23126 70.31771Q540.96564 71.114586 540.96564 71.97396Q540.96564 73.06771 541.27814 73.88021Q541.60626 74.69271 542.27814 75.09896Q542.95 75.50521 543.7469 75.50521Q544.7 75.50521 545.35626 74.958336Q546.02814 74.41146 546.2625 73.31771ZM548.96564 76.333336L548.96564 67.739586L550.02814 67.739586L550.02814 76.333336L548.96564 76.333336ZM551.9969 68.958336L551.9969 67.739586L553.0594 67.739586L553.0594 68.958336L551.9969 68.958336ZM551.9969 76.333336L551.9969 70.114586L553.0594 70.114586L553.0594 76.333336L551.9969 76.333336ZM559.0594 74.052086L560.09064 74.19271Q559.91876 75.25521 559.21564 75.864586Q558.5125 76.47396 557.4969 76.47396Q556.21564 76.47396 555.4344 75.645836Q554.66876 74.802086 554.66876 73.239586Q554.66876 72.239586 554.9969 71.489586Q555.34064 70.72396 556.0125 70.34896Q556.7 69.97396 557.5125 69.97396Q558.5125 69.97396 559.15314 70.489586Q559.8094 70.989586 559.9969 71.94271L558.96564 72.09896Q558.825 71.47396 558.45 71.16146Q558.075 70.833336 557.54376 70.833336Q556.7469 70.833336 556.2469 71.41146Q555.7469 71.97396 555.7469 73.208336Q555.7469 74.47396 556.23126 75.03646Q556.71564 75.59896 557.48126 75.59896Q558.10626 75.59896 558.5125 75.22396Q558.9344 74.84896 559.0594 74.052086ZM560.9969 76.333336L560.9969 67.739586L562.0594 67.739586L562.0594 72.645836L564.54376 70.114586L565.91876 70.114586L563.52814 72.41146L566.15314 76.333336L564.85626 76.333336L562.79376 73.145836L562.0594 73.864586L562.0594 76.333336L560.9969 76.333336ZM567.16876 76.333336L567.16876 67.739586L568.29376 67.739586L568.29376 71.270836L572.7625 71.270836L572.7625 67.739586L573.90314 67.739586L573.90314 76.333336L572.7625 76.333336L572.7625 72.28646L568.29376 72.28646L568.29376 76.333336L567.16876 76.333336ZM575.60626 73.22396Q575.60626 71.489586 576.5594 70.66146Q577.35626 69.97396 578.5125 69.97396Q579.79376 69.97396 580.60626 70.81771Q581.4344 71.645836 581.4344 73.13021Q581.4344 74.333336 581.075 75.020836Q580.71564 75.708336 580.0125 76.09896Q579.325 76.47396 578.5125 76.47396Q577.21564 76.47396 576.40314 75.645836Q575.60626 74.802086 575.60626 73.22396ZM576.6844 73.22396Q576.6844 74.41146 577.2 75.00521Q577.73126 75.59896 578.5125 75.59896Q579.3094 75.59896 579.825 75.00521Q580.34064 74.41146 580.34064 73.19271Q580.34064 72.03646 579.8094 71.44271Q579.29376 70.84896 578.5125 70.84896Q577.73126 70.84896 577.2 71.44271Q576.6844 72.020836 576.6844 73.22396ZM587.075 76.333336L587.075 75.41146Q586.34064 76.47396 585.09064 76.47396Q584.54376 76.47396 584.0594 76.270836Q583.59064 76.052086 583.35626 75.739586Q583.1219 75.41146 583.02814 74.94271Q582.96564 74.645836 582.96564 73.958336L582.96564 70.114586L584.02814 70.114586L584.02814 73.56771Q584.02814 74.38021 584.09064 74.677086Q584.1844 75.083336 584.4969 75.333336Q584.825 75.56771 585.3094 75.56771Q585.77814 75.56771 586.1844 75.333336Q586.60626 75.083336 586.77814 74.66146Q586.96564 74.239586 586.96564 73.44271L586.96564 70.114586L588.0125 70.114586L588.0125 76.333336L587.075 76.333336ZM589.575 74.47396L590.60626 74.31771Q590.7 74.94271 591.09064 75.270836Q591.4969 75.59896 592.23126 75.59896Q592.95 75.59896 593.29376 75.31771Q593.65314 75.020836 593.65314 74.614586Q593.65314 74.25521 593.34064 74.052086Q593.1219 73.91146 592.2625 73.69271Q591.10626 73.395836 590.65314 73.19271Q590.21564 72.97396 589.98126 72.59896Q589.7469 72.22396 589.7469 71.75521Q589.7469 71.34896 589.9344 70.989586Q590.1219 70.63021 590.45 70.395836Q590.7 70.22396 591.1219 70.09896Q591.54376 69.97396 592.04376 69.97396Q592.7625 69.97396 593.3094 70.19271Q593.8719 70.395836 594.1375 70.75521Q594.40314 71.114586 594.4969 71.708336L593.46564 71.84896Q593.40314 71.38021 593.0594 71.114586Q592.73126 70.833336 592.10626 70.833336Q591.3875 70.833336 591.075 71.083336Q590.7625 71.31771 590.7625 71.645836Q590.7625 71.84896 590.8875 72.00521Q591.02814 72.177086 591.29376 72.28646Q591.45 72.34896 592.23126 72.552086Q593.35626 72.864586 593.79376 73.052086Q594.23126 73.239586 594.48126 73.59896Q594.73126 73.958336 594.73126 74.50521Q594.73126 75.03646 594.41876 75.50521Q594.1219 75.958336 593.54376 76.22396Q592.96564 76.47396 592.23126 76.47396Q591.0125 76.47396 590.3719 75.97396Q589.7469 75.458336 589.575 74.47396ZM601.2469 74.333336L602.34064 74.458336Q602.09064 75.41146 601.3875 75.94271Q600.6844 76.47396 599.60626 76.47396Q598.2469 76.47396 597.4344 75.63021Q596.6375 74.78646 596.6375 73.270836Q596.6375 71.708336 597.45 70.84896Q598.2625 69.97396 599.54376 69.97396Q600.79376 69.97396 601.575 70.81771Q602.3719 71.66146 602.3719 73.208336Q602.3719 73.302086 602.3719 73.489586L597.73126 73.489586Q597.79376 74.520836 598.3094 75.06771Q598.825 75.59896 599.60626 75.59896Q600.1844 75.59896 600.59064 75.302086Q601.0125 74.989586 601.2469 74.333336ZM597.79376 72.63021L601.2625 72.63021Q601.2 71.833336 600.8719 71.44271Q600.35626 70.833336 599.5594 70.833336Q598.825 70.833336 598.325 71.31771Q597.84064 71.802086 597.79376 72.63021Z" fill-rule="nonzero"/><path fill="#ea4335" d="M519.2 91.333336C519.2 90.78105 519.6477 90.333336 520.2 90.333336L530.2 90.333336C530.75226 90.333336 531.2 90.78105 531.2 91.333336L531.2 101.333336C531.2 101.88562 530.75226 102.333336 530.2 102.333336L520.2 102.333336C519.6477 102.333336 519.2 101.88562 519.2 101.333336Z" fill-rule="nonzero"/><path fill="#1a1a1a" d="M542.3094 100.333336L542.3094 92.75521L539.48126 92.75521L539.48126 91.739586L546.29376 91.739586L546.29376 92.75521L543.45 92.75521L543.45 100.333336L542.3094 100.333336ZM551.2469 98.333336L552.34064 98.458336Q552.09064 99.41146 551.3875 99.94271Q550.6844 100.47396 549.60626 100.47396Q548.2469 100.47396 547.4344 99.63021Q546.6375 98.78646 546.6375 97.270836Q546.6375 95.708336 547.45 94.84896Q548.2625 93.97396 549.54376 93.97396Q550.79376 93.97396 551.575 94.81771Q552.3719 95.66146 552.3719 97.208336Q552.3719 97.302086 552.3719 97.489586L547.73126 97.489586Q547.79376 98.520836 548.3094 99.06771Q548.825 99.59896 549.60626 99.59896Q550.1844 99.59896 550.59064 99.302086Q551.0125 98.989586 551.2469 98.333336ZM547.79376 96.63021L551.2625 96.63021Q551.2 95.833336 550.8719 95.44271Q550.35626 94.833336 549.5594 94.833336Q548.825 94.833336 548.325 95.31771Q547.84064 95.802086 547.79376 96.63021ZM553.9969 100.333336L553.9969 94.114586L554.9344 94.114586L554.9344 94.989586Q555.6219 93.97396 556.91876 93.97396Q557.48126 93.97396 557.95 94.177086Q558.4344 94.38021 558.66876 94.708336Q558.90314 95.03646 558.9969 95.47396Q559.04376 95.770836 559.04376 96.50521L559.04376 100.333336L557.9969 100.333336L557.9969 96.552086Q557.9969 95.895836 557.8719 95.583336Q557.7469 95.270836 557.4344 95.083336Q557.1219 94.88021 556.7 94.88021Q556.02814 94.88021 555.52814 95.31771Q555.04376 95.739586 555.04376 96.927086L555.04376 100.333336L553.9969 100.333336ZM560.575 98.47396L561.60626 98.31771Q561.7 98.94271 562.09064 99.270836Q562.4969 99.59896 563.23126 99.59896Q563.95 99.59896 564.29376 99.31771Q564.65314 99.020836 564.65314 98.614586Q564.65314 98.25521 564.34064 98.052086Q564.1219 97.91146 563.2625 97.69271Q562.10626 97.395836 561.65314 97.19271Q561.21564 96.97396 560.98126 96.59896Q560.7469 96.22396 560.7469 95.75521Q560.7469 95.34896 560.9344 94.989586Q561.1219 94.63021 561.45 94.395836Q561.7 94.22396 562.1219 94.09896Q562.54376 93.97396 563.04376 93.97396Q563.7625 93.97396 564.3094 94.19271Q564.8719 94.395836 565.1375 94.75521Q565.40314 95.114586 565.4969 95.708336L564.46564 95.84896Q564.40314 95.38021 564.0594 95.114586Q563.73126 94.833336 563.10626 94.833336Q562.3875 94.833336 562.075 95.083336Q561.7625 95.31771 561.7625 95.645836Q561.7625 95.84896 561.8875 96.00521Q562.02814 96.177086 562.29376 96.28646Q562.45 96.34896 563.23126 96.552086Q564.35626 96.864586 564.79376 97.052086Q565.23126 97.239586 565.48126 97.59896Q565.73126 97.958336 565.73126 98.50521Q565.73126 99.03646 565.41876 99.50521Q565.1219 99.958336 564.54376 100.22396Q563.96564 100.47396 563.23126 100.47396Q562.0125 100.47396 561.3719 99.97396Q560.7469 99.458336 560.575 98.47396ZM567.60626 97.22396Q567.60626 95.489586 568.5594 94.66146Q569.35626 93.97396 570.5125 93.97396Q571.79376 93.97396 572.60626 94.81771Q573.4344 95.645836 573.4344 97.13021Q573.4344 98.333336 573.075 99.020836Q572.71564 99.708336 572.0125 100.09896Q571.325 100.47396 570.5125 100.47396Q569.21564 100.47396 568.40314 99.645836Q567.60626 98.802086 567.60626 97.22396ZM568.6844 97.22396Q568.6844 98.41146 569.2 99.00521Q569.73126 99.59896 570.5125 99.59896Q571.3094 99.59896 571.825 99.00521Q572.34064 98.41146 572.34064 97.19271Q572.34064 96.03646 571.8094 95.44271Q571.29376 94.84896 570.5125 94.84896Q569.73126 94.84896 569.2 95.44271Q568.6844 96.020836 568.6844 97.22396ZM574.98126 100.333336L574.98126 94.114586L575.9344 94.114586L575.9344 95.052086Q576.29376 94.395836 576.59064 94.19271Q576.90314 93.97396 577.27814 93.97396Q577.8094 93.97396 578.35626 94.302086L577.9969 95.28646Q577.60626 95.052086 577.23126 95.052086Q576.8719 95.052086 576.59064 95.270836Q576.325 95.47396 576.21564 95.84896Q576.02814 96.41146 576.02814 97.06771L576.02814 100.333336L574.98126 100.333336ZM579.075 100.333336L579.075 91.739586L582.3094 91.739586Q583.29376 91.739586 583.8875 92.00521Q584.48126 92.270836 584.8094 92.81771Q585.15314 93.34896 585.15314 93.94271Q585.15314 94.489586 584.85626 94.97396Q584.5594 95.458336 583.95 95.75521Q584.73126 95.989586 585.1375 96.552086Q585.5594 97.09896 585.5594 97.84896Q585.5594 98.44271 585.3094 98.97396Q585.0594 99.489586 584.6844 99.770836Q584.3094 100.052086 583.73126 100.19271Q583.16876 100.333336 582.35626 100.333336L579.075 100.333336ZM580.21564 95.34896L582.075 95.34896Q582.825 95.34896 583.15314 95.25521Q583.59064 95.13021 583.8094 94.833336Q584.02814 94.520836 584.02814 94.06771Q584.02814 93.645836 583.825 93.31771Q583.6219 92.989586 583.23126 92.88021Q582.85626 92.75521 581.9344 92.75521L580.21564 92.75521L580.21564 95.34896ZM580.21564 99.31771L582.35626 99.31771Q582.90314 99.31771 583.1219 99.270836Q583.52814 99.208336 583.77814 99.052086Q584.04376 98.88021 584.21564 98.56771Q584.3875 98.25521 584.3875 97.84896Q584.3875 97.364586 584.1375 97.00521Q583.90314 96.645836 583.46564 96.50521Q583.02814 96.364586 582.2 96.364586L580.21564 96.364586L580.21564 99.31771ZM591.0594 99.56771Q590.46564 100.06771 589.91876 100.270836Q589.3875 100.47396 588.7625 100.47396Q587.73126 100.47396 587.1844 99.97396Q586.6375 99.47396 586.6375 98.69271Q586.6375 98.239586 586.84064 97.864586Q587.04376 97.47396 587.3875 97.25521Q587.73126 97.020836 588.15314 96.91146Q588.45 96.81771 589.09064 96.739586Q590.35626 96.59896 590.96564 96.38021Q590.96564 96.16146 590.96564 96.114586Q590.96564 95.458336 590.66876 95.19271Q590.2625 94.84896 589.46564 94.84896Q588.73126 94.84896 588.3719 95.114586Q588.0125 95.364586 587.84064 96.020836L586.8094 95.88021Q586.95 95.22396 587.27814 94.81771Q587.60626 94.41146 588.21564 94.19271Q588.825 93.97396 589.6219 93.97396Q590.41876 93.97396 590.91876 94.16146Q591.41876 94.34896 591.65314 94.63021Q591.8875 94.91146 591.98126 95.34896Q592.02814 95.614586 592.02814 96.31771L592.02814 97.72396Q592.02814 99.19271 592.09064 99.583336Q592.16876 99.97396 592.3719 100.333336L591.2625 100.333336Q591.10626 100.00521 591.0594 99.56771ZM590.96564 97.208336Q590.3875 97.44271 589.2469 97.614586Q588.59064 97.708336 588.325 97.833336Q588.0594 97.94271 587.90314 98.16146Q587.7625 98.38021 587.7625 98.66146Q587.7625 99.083336 588.075 99.364586Q588.40314 99.645836 589.0125 99.645836Q589.6219 99.645836 590.09064 99.38021Q590.575 99.114586 590.79376 98.645836Q590.96564 98.28646 590.96564 97.59896L590.96564 97.208336ZM593.575 98.47396L594.60626 98.31771Q594.7 98.94271 595.09064 99.270836Q595.4969 99.59896 596.23126 99.59896Q596.95 99.59896 597.29376 99.31771Q597.65314 99.020836 597.65314 98.614586Q597.65314 98.25521 597.34064 98.052086Q597.1219 97.91146 596.2625 97.69271Q595.10626 97.395836 594.65314 97.19271Q594.21564 96.97396 593.98126 96.59896Q593.7469 96.22396 593.7469 95.75521Q593.7469 95.34896 593.9344 94.989586Q594.1219 94.63021 594.45 94.395836Q594.7 94.22396 595.1219 94.09896Q595.54376 93.97396 596.04376 93.97396Q596.7625 93.97396 597.3094 94.19271Q597.8719 94.395836 598.1375 94.75521Q598.40314 95.114586 598.4969 95.708336L597.46564 95.84896Q597.40314 95.38021 597.0594 95.114586Q596.73126 94.833336 596.10626 94.833336Q595.3875 94.833336 595.075 95.083336Q594.7625 95.31771 594.7625 95.645836Q594.7625 95.84896 594.8875 96.00521Q595.02814 96.177086 595.29376 96.28646Q595.45 96.34896 596.23126 96.552086Q597.35626 96.864586 597.79376 97.052086Q598.23126 97.239586 598.48126 97.59896Q598.73126 97.958336 598.73126 98.50521Q598.73126 99.03646 598.41876 99.50521Q598.1219 99.958336 597.54376 100.22396Q596.96564 100.47396 596.23126 100.47396Q595.0125 100.47396 594.3719 99.97396Q593.7469 99.458336 593.575 98.47396ZM605.2469 98.333336L606.34064 98.458336Q606.09064 99.41146 605.3875 99.94271Q604.6844 100.47396 603.60626 100.47396Q602.2469 100.47396 601.4344 99.63021Q600.6375 98.78646 600.6375 97.270836Q600.6375 95.708336 601.45 94.84896Q602.2625 93.97396 603.54376 93.97396Q604.79376 93.97396 605.575 94.81771Q606.3719 95.66146 606.3719 97.208336Q606.3719 97.302086 606.3719 97.489586L601.73126 97.489586Q601.79376 98.520836 602.3094 99.06771Q602.825 99.59896 603.60626 99.59896Q604.1844 99.59896 604.59064 99.302086Q605.0125 98.989586 605.2469 98.333336ZM601.79376 96.63021L605.2625 96.63021Q605.2 95.833336 604.8719 95.44271Q604.35626 94.833336 603.5594 94.833336Q602.825 94.833336 602.325 95.31771Q601.84064 95.802086 601.79376 96.63021ZM611.1844 100.333336L611.1844 91.739586L616.98126 91.739586L616.98126 92.75521L612.325 92.75521L612.325 95.41146L616.35626 95.41146L616.35626 96.427086L612.325 96.427086L612.325 100.333336L611.1844 100.333336ZM618.15314 100.333336L618.15314 91.739586L624.35626 91.739586L624.35626 92.75521L619.29376 92.75521L619.29376 95.38021L624.04376 95.38021L624.04376 96.395836L619.29376 96.395836L619.29376 99.31771L624.5594 99.31771L624.5594 100.333336L618.15314 100.333336Z" fill-rule="nonzero"/><path fill="#757575" d="M66.12262 36.967793L66.12262 22.655293L68.93512 22.655293L74.794495 32.217793L74.794495 22.655293L77.481995 22.655293L77.481995 36.967793L74.575745 36.967793L68.81012 27.624043L68.81012 36.967793L66.12262 36.967793ZM83.856995 36.967793L83.856995 30.936543L78.606995 22.655293L81.99762 22.655293L85.37262 28.311543L88.669495 22.655293L91.99762 22.655293L86.731995 30.967793L86.731995 36.967793L83.856995 36.967793ZM102.24762 31.702168L105.06012 32.592793Q104.419495 34.936543 102.919495 36.077168Q101.419495 37.217793 99.106995 37.217793Q96.263245 37.217793 94.419495 35.264668Q92.59137 33.311543 92.59137 29.936543Q92.59137 26.358418 94.43512 24.389668Q96.27887 22.405293 99.27887 22.405293Q101.919495 22.405293 103.56012 23.952168Q104.52887 24.874043 105.013245 26.592793L102.15387 27.280293Q101.90387 26.170918 101.09137 25.530293Q100.294495 24.874043 99.138245 24.874043Q97.544495 24.874043 96.544495 26.014668Q95.56012 27.155293 95.56012 29.717793Q95.56012 32.436543 96.52887 33.592793Q97.513245 34.733418 99.075745 34.733418Q100.231995 34.733418 101.06012 34.014668Q101.888245 33.280293 102.24762 31.702168ZM116.31012 36.967793L116.31012 25.077168L112.075745 25.077168L112.075745 22.655293L123.450745 22.655293L123.450745 25.077168L119.200745 25.077168L119.200745 36.967793L116.31012 36.967793ZM128.12262 29.764668L125.638245 29.311543Q126.06012 27.811543 127.075745 27.092793Q128.107 26.358418 130.12262 26.358418Q131.96637 26.358418 132.857 26.795918Q133.76324 27.233418 134.12262 27.905293Q134.49762 28.561543 134.49762 30.358418L134.46637 33.561543Q134.46637 34.920918 134.59137 35.577168Q134.732 36.217793 135.09137 36.967793L132.37262 36.967793Q132.26324 36.686543 132.107 36.155293Q132.0445 35.905293 132.01324 35.827168Q131.31012 36.514668 130.49762 36.858418Q129.70074 37.202168 128.7945 37.202168Q127.200745 37.202168 126.27887 36.342793Q125.356995 35.467793 125.356995 34.139668Q125.356995 33.249043 125.763245 32.561543Q126.18512 31.874043 126.93512 31.514668Q127.700745 31.139668 129.13824 30.874043Q131.06012 30.514668 131.7945 30.202168L131.7945 29.920918Q131.7945 29.139668 131.40387 28.811543Q131.01324 28.467793 129.93512 28.467793Q129.20074 28.467793 128.77887 28.749043Q128.37262 29.030293 128.12262 29.764668ZM131.7945 31.983418Q131.26324 32.155293 130.12262 32.405293Q128.982 32.655293 128.63824 32.889668Q128.09137 33.264668 128.09137 33.858418Q128.09137 34.420918 128.51324 34.842793Q128.95074 35.264668 129.62262 35.264668Q130.357 35.264668 131.02887 34.780293Q131.52887 34.405293 131.68512 33.874043Q131.7945 33.514668 131.7945 32.530293L131.7945 31.983418ZM135.76324 36.967793L139.49762 31.624043L135.9195 26.592793L139.26324 26.592793L141.09137 29.452168L143.02887 26.592793L146.24762 26.592793L142.732 31.514668L146.57574 36.967793L143.20074 36.967793L141.09137 33.749043L138.96637 36.967793L135.76324 36.967793ZM148.07574 25.186543L148.07574 22.655293L150.82574 22.655293L150.82574 25.186543L148.07574 25.186543ZM148.07574 36.967793L148.07574 26.592793L150.82574 26.592793L150.82574 36.967793L148.07574 36.967793ZM165.51324 36.967793L162.76324 36.967793L162.76324 26.624043Q161.26324 28.030293 159.21637 28.702168L159.21637 26.217793Q160.2945 25.858418 161.5445 24.889668Q162.81012 23.905293 163.27887 22.592793L165.51324 22.592793L165.51324 36.967793ZM170.07574 36.967793L170.07574 34.217793L172.82574 34.217793L172.82574 36.967793L170.07574 36.967793ZM180.87262 36.967793L180.87262 34.092793L175.01324 34.092793L175.01324 31.686543L181.21637 22.592793L183.52887 22.592793L183.52887 31.670918L185.31012 31.670918L185.31012 34.092793L183.52887 34.092793L183.52887 36.967793L180.87262 36.967793ZM180.87262 31.670918L180.87262 26.780293L177.57574 31.670918L180.87262 31.670918ZM186.482 25.389668L186.482 22.842793L195.87262 22.842793L195.87262 24.842793Q194.71637 25.983418 193.51324 28.124043Q192.31012 30.264668 191.6695 32.670918Q191.0445 35.077168 191.06012 36.967793L188.4195 36.967793Q188.482 33.999043 189.63824 30.920918Q190.7945 27.827168 192.732 25.389668L186.482 25.389668ZM198.107 22.655293L203.82574 22.655293Q205.52887 22.655293 206.357 22.795918Q207.20074 22.936543 207.857 23.389668Q208.51324 23.827168 208.95074 24.577168Q209.38824 25.327168 209.38824 26.249043Q209.38824 27.264668 208.84137 28.108418Q208.31012 28.936543 207.38824 29.358418Q208.68512 29.733418 209.38824 30.655293Q210.09137 31.577168 210.09137 32.811543Q210.09137 33.795918 209.63824 34.717793Q209.18512 35.639668 208.40387 36.202168Q207.62262 36.749043 206.46637 36.874043Q205.74762 36.952168 202.982 36.967793L198.107 36.967793L198.107 22.655293ZM200.99762 25.030293L200.99762 28.342793L202.88824 28.342793Q204.57574 28.342793 204.982 28.295918Q205.732 28.202168 206.15387 27.780293Q206.57574 27.358418 206.57574 26.670918Q206.57574 25.999043 206.20074 25.592793Q205.84137 25.170918 205.12262 25.077168Q204.70074 25.030293 202.65387 25.030293L200.99762 25.030293ZM200.99762 30.733418L200.99762 34.561543L203.6695 34.561543Q205.232 34.561543 205.65387 34.467793Q206.2945 34.342793 206.70074 33.889668Q207.107 33.436543 207.107 32.686543Q207.107 32.030293 206.7945 31.592793Q206.482 31.139668 205.88824 30.936543Q205.2945 30.733418 203.32574 30.733418L200.99762 30.733418ZM218.09137 36.967793L218.09137 22.655293L228.71637 22.655293L228.71637 25.077168L220.982 25.077168L220.982 28.249043L228.1695 28.249043L228.1695 30.655293L220.982 30.655293L220.982 34.561543L228.982 34.561543L228.982 36.967793L218.09137 36.967793ZM240.51324 36.967793L237.76324 36.967793L237.76324 31.670918Q237.76324 29.999043 237.59137 29.514668Q237.4195 29.014668 237.01324 28.749043Q236.62262 28.467793 236.06012 28.467793Q235.357 28.467793 234.77887 28.858418Q234.21637 29.249043 233.99762 29.889668Q233.7945 30.530293 233.7945 32.264668L233.7945 36.967793L231.06012 36.967793L231.06012 26.592793L233.607 26.592793L233.607 28.124043Q234.96637 26.358418 237.02887 26.358418Q237.93512 26.358418 238.68512 26.686543Q239.43512 27.014668 239.81012 27.530293Q240.20074 28.030293 240.357 28.686543Q240.51324 29.327168 240.51324 30.514668L240.51324 36.967793ZM252.59137 36.967793L250.0445 36.967793L250.0445 35.436543Q249.40387 36.327168 248.52887 36.764668Q247.6695 37.202168 246.7945 37.202168Q245.01324 37.202168 243.732 35.764668Q242.46637 34.327168 242.46637 31.749043Q242.46637 29.108418 243.70074 27.733418Q244.93512 26.358418 246.84137 26.358418Q248.57574 26.358418 249.84137 27.811543L249.84137 22.655293L252.59137 22.655293L252.59137 36.967793ZM245.26324 31.561543Q245.26324 33.217793 245.71637 33.952168Q246.38824 35.030293 247.57574 35.030293Q248.52887 35.030293 249.18512 34.233418Q249.857 33.420918 249.857 31.827168Q249.857 30.030293 249.20074 29.249043Q248.56012 28.467793 247.56012 28.467793Q246.57574 28.467793 245.9195 29.249043Q245.26324 30.014668 245.26324 31.561543ZM254.76324 33.155293L254.76324 30.405293L260.15387 30.405293L260.15387 33.155293L254.76324 33.155293ZM265.82574 26.592793L265.82574 28.780293L263.95074 28.780293L263.95074 32.967793Q263.95074 34.233418 263.99762 34.452168Q264.06012 34.655293 264.24762 34.795918Q264.45074 34.920918 264.71637 34.920918Q265.09137 34.920918 265.82574 34.655293L266.06012 36.795918Q265.09137 37.202168 263.88824 37.202168Q263.13824 37.202168 262.5445 36.952168Q261.95074 36.702168 261.6695 36.311543Q261.40387 35.905293 261.2945 35.233418Q261.20074 34.764668 261.20074 33.311543L261.20074 28.780293L259.93512 28.780293L259.93512 26.592793L261.20074 26.592793L261.20074 24.530293L263.95074 22.936543L263.95074 26.592793L265.82574 26.592793ZM267.43512 31.639668Q267.43512 30.264668 268.107 28.983418Q268.7945 27.702168 270.02887 27.030293Q271.26324 26.358418 272.77887 26.358418Q275.13824 26.358418 276.63824 27.889668Q278.13824 29.420918 278.13824 31.749043Q278.13824 34.108418 276.62262 35.655293Q275.107 37.202168 272.7945 37.202168Q271.37262 37.202168 270.07574 36.561543Q268.7945 35.905293 268.107 34.670918Q267.43512 33.420918 267.43512 31.639668ZM270.24762 31.780293Q270.24762 33.327168 270.982 34.155293Q271.71637 34.967793 272.7945 34.967793Q273.87262 34.967793 274.59137 34.155293Q275.32574 33.327168 275.32574 31.764668Q275.32574 30.233418 274.59137 29.420918Q273.87262 28.592793 272.7945 28.592793Q271.71637 28.592793 270.982 29.420918Q270.24762 30.233418 270.24762 31.780293ZM279.76324 33.155293L279.76324 30.405293L285.15387 30.405293L285.15387 33.155293L279.76324 33.155293ZM286.09137 36.967793L286.09137 22.655293L296.71637 22.655293L296.71637 25.077168L288.982 25.077168L288.982 28.249043L296.1695 28.249043L296.1695 30.655293L288.982 30.655293L288.982 34.561543L296.982 34.561543L296.982 36.967793L286.09137 36.967793ZM308.51324 36.967793L305.76324 36.967793L305.76324 31.670918Q305.76324 29.999043 305.59137 29.514668Q305.4195 29.014668 305.01324 28.749043Q304.62262 28.467793 304.06012 28.467793Q303.357 28.467793 302.77887 28.858418Q302.21637 29.249043 301.99762 29.889668Q301.7945 30.530293 301.7945 32.264668L301.7945 36.967793L299.06012 36.967793L299.06012 26.592793L301.607 26.592793L301.607 28.124043Q302.96637 26.358418 305.02887 26.358418Q305.93512 26.358418 306.68512 26.686543Q307.43512 27.014668 307.81012 27.530293Q308.20074 28.030293 308.357 28.686543Q308.51324 29.327168 308.51324 30.514668L308.51324 36.967793ZM320.59137 36.967793L318.0445 36.967793L318.0445 35.436543Q317.40387 36.327168 316.52887 36.764668Q315.6695 37.202168 314.7945 37.202168Q313.01324 37.202168 311.732 35.764668Q310.46637 34.327168 310.46637 31.749043Q310.46637 29.108418 311.70074 27.733418Q312.93512 26.358418 314.84137 26.358418Q316.57574 26.358418 317.84137 27.811543L317.84137 22.655293L320.59137 22.655293L320.59137 36.967793ZM313.26324 31.561543Q313.26324 33.217793 313.71637 33.952168Q314.38824 35.030293 315.57574 35.030293Q316.52887 35.030293 317.18512 34.233418Q317.857 33.420918 317.857 31.827168Q317.857 30.030293 317.20074 29.249043Q316.56012 28.467793 315.56012 28.467793Q314.57574 28.467793 313.9195 29.249043Q313.26324 30.014668 313.26324 31.561543ZM340.62262 35.155293Q341.68512 35.905293 342.93512 36.358418L341.87262 38.405293Q341.21637 38.202168 340.59137 37.874043Q340.45074 37.795918 338.6695 36.592793Q337.26324 37.217793 335.5445 37.217793Q332.24762 37.217793 330.37262 35.280293Q328.51324 33.327168 328.51324 29.811543Q328.51324 26.295918 330.38824 24.358418Q332.26324 22.405293 335.46637 22.405293Q338.65387 22.405293 340.51324 24.358418Q342.38824 26.295918 342.38824 29.811543Q342.38824 31.670918 341.87262 33.077168Q341.482 34.139668 340.62262 35.155293ZM338.2945 33.514668Q338.857 32.858418 339.12262 31.936543Q339.40387 31.014668 339.40387 29.811543Q339.40387 27.327168 338.31012 26.108418Q337.21637 24.874043 335.45074 24.874043Q333.68512 24.874043 332.57574 26.108418Q331.482 27.342793 331.482 29.811543Q331.482 32.311543 332.57574 33.561543Q333.68512 34.811543 335.357 34.811543Q335.982 34.811543 336.5445 34.608418Q335.6695 34.030293 334.76324 33.702168L335.57574 32.061543Q336.99762 32.545918 338.2945 33.514668ZM351.90387 36.967793L351.90387 35.420918Q351.34137 36.249043 350.40387 36.733418Q349.482 37.202168 348.46637 37.202168Q347.4195 37.202168 346.59137 36.749043Q345.76324 36.280293 345.38824 35.452168Q345.01324 34.624043 345.01324 33.155293L345.01324 26.592793L347.76324 26.592793L347.76324 31.358418Q347.76324 33.545918 347.90387 34.045918Q348.06012 34.530293 348.45074 34.827168Q348.857 35.108418 349.482 35.108418Q350.18512 35.108418 350.732 34.733418Q351.2945 34.342793 351.49762 33.780293Q351.70074 33.202168 351.70074 30.967793L351.70074 26.592793L354.45074 26.592793L354.45074 36.967793L351.90387 36.967793ZM363.07574 33.670918L365.81012 34.124043Q365.2945 35.624043 364.15387 36.420918Q363.01324 37.202168 361.31012 37.202168Q358.59137 37.202168 357.2945 35.436543Q356.27887 34.014668 356.27887 31.858418Q356.27887 29.280293 357.62262 27.827168Q358.96637 26.358418 361.02887 26.358418Q363.34137 26.358418 364.6695 27.889668Q366.01324 29.420918 365.96637 32.577168L359.09137 32.577168Q359.12262 33.795918 359.74762 34.483418Q360.38824 35.155293 361.32574 35.155293Q361.982 35.155293 362.4195 34.811543Q362.857 34.452168 363.07574 33.670918ZM363.232 30.889668Q363.20074 29.702168 362.607 29.092793Q362.02887 28.467793 361.20074 28.467793Q360.2945 28.467793 359.71637 29.108418Q359.12262 29.764668 359.13824 30.889668L363.232 30.889668ZM370.70074 36.967793L367.95074 36.967793L367.95074 26.592793L370.51324 26.592793L370.51324 28.077168Q371.15387 27.030293 371.6695 26.702168Q372.20074 26.358418 372.87262 26.358418Q373.81012 26.358418 374.6695 26.874043L373.82574 29.264668Q373.13824 28.827168 372.5445 28.827168Q371.96637 28.827168 371.56012 29.139668Q371.15387 29.452168 370.9195 30.295918Q370.70074 31.124043 370.70074 33.764668L370.70074 36.967793ZM374.77887 26.592793L377.70074 26.592793L380.1695 33.952168L382.59137 26.592793L385.43512 26.592793L381.77887 36.577168L381.12262 38.389668Q380.76324 39.295918 380.43512 39.764668Q380.107 40.249043 379.68512 40.545918Q379.26324 40.842793 378.63824 40.999043Q378.01324 41.170918 377.232 41.170918Q376.45074 41.170918 375.68512 41.014668L375.43512 38.858418Q376.09137 38.983418 376.607 38.983418Q377.56012 38.983418 378.01324 38.420918Q378.482 37.874043 378.71637 36.999043L374.77887 26.592793ZM396.31012 36.967793L396.31012 25.077168L392.07574 25.077168L392.07574 22.655293L403.45074 22.655293L403.45074 25.077168L399.20074 25.077168L399.20074 36.967793L396.31012 36.967793ZM406.07574 25.186543L406.07574 22.655293L408.82574 22.655293L408.82574 25.186543L406.07574 25.186543ZM406.07574 36.967793L406.07574 26.592793L408.82574 26.592793L408.82574 36.967793L406.07574 36.967793ZM410.87262 26.592793L413.40387 26.592793L413.40387 28.014668Q414.76324 26.358418 416.63824 26.358418Q417.62262 26.358418 418.357 26.780293Q419.09137 27.186543 419.56012 28.014668Q420.24762 27.186543 421.02887 26.780293Q421.82574 26.358418 422.732 26.358418Q423.87262 26.358418 424.65387 26.827168Q425.45074 27.295918 425.84137 28.186543Q426.12262 28.858418 426.12262 30.342793L426.12262 36.967793L423.37262 36.967793L423.37262 31.045918Q423.37262 29.499043 423.09137 29.045918Q422.71637 28.467793 421.9195 28.467793Q421.34137 28.467793 420.82574 28.827168Q420.32574 29.170918 420.107 29.842793Q419.88824 30.514668 419.88824 31.983418L419.88824 36.967793L417.13824 36.967793L417.13824 31.280293Q417.13824 29.764668 416.982 29.327168Q416.84137 28.889668 416.52887 28.686543Q416.232 28.467793 415.70074 28.467793Q415.07574 28.467793 414.56012 28.811543Q414.06012 29.139668 413.82574 29.795918Q413.607 30.436543 413.607 31.920918L413.607 36.967793L410.87262 36.967793L410.87262 26.592793ZM434.07574 33.670918L436.81012 34.124043Q436.2945 35.624043 435.15387 36.420918Q434.01324 37.202168 432.31012 37.202168Q429.59137 37.202168 428.2945 35.436543Q427.27887 34.014668 427.27887 31.858418Q427.27887 29.280293 428.62262 27.827168Q429.96637 26.358418 432.02887 26.358418Q434.34137 26.358418 435.6695 27.889668Q437.01324 29.420918 436.96637 32.577168L430.09137 32.577168Q430.12262 33.795918 430.74762 34.483418Q431.38824 35.155293 432.32574 35.155293Q432.982 35.155293 433.4195 34.811543Q433.857 34.452168 434.07574 33.670918ZM434.232 30.889668Q434.20074 29.702168 433.607 29.092793Q433.02887 28.467793 432.20074 28.467793Q431.2945 28.467793 430.71637 29.108418Q430.12262 29.764668 430.13824 30.889668L434.232 30.889668ZM449.62262 41.170918L447.74762 41.170918Q446.24762 38.920918 445.46637 36.499043Q444.68512 34.061543 444.68512 31.780293Q444.68512 28.952168 445.65387 26.436543Q446.49762 24.249043 447.77887 22.405293L449.65387 22.405293Q448.31012 25.358418 447.81012 27.436543Q447.31012 29.514668 447.31012 31.842793Q447.31012 33.436543 447.607 35.124043Q447.90387 36.795918 448.4195 38.311543Q448.76324 39.311543 449.62262 41.170918ZM451.107 34.014668L453.857 33.592793Q454.0445 34.389668 454.57574 34.811543Q455.107 35.217793 456.07574 35.217793Q457.13824 35.217793 457.68512 34.827168Q458.0445 34.561543 458.0445 34.092793Q458.0445 33.780293 457.84137 33.577168Q457.63824 33.389668 456.93512 33.217793Q453.607 32.483418 452.71637 31.874043Q451.482 31.045918 451.482 29.545918Q451.482 28.202168 452.5445 27.280293Q453.62262 26.358418 455.857 26.358418Q457.982 26.358418 459.01324 27.061543Q460.06012 27.749043 460.45074 29.108418L457.857 29.577168Q457.68512 28.983418 457.21637 28.655293Q456.76324 28.327168 455.90387 28.327168Q454.82574 28.327168 454.357 28.639668Q454.0445 28.858418 454.0445 29.186543Q454.0445 29.483418 454.31012 29.686543Q454.68512 29.967793 456.87262 30.467793Q459.06012 30.967793 459.93512 31.686543Q460.7945 32.420918 460.7945 33.717793Q460.7945 35.155293 459.607 36.186543Q458.4195 37.202168 456.07574 37.202168Q453.96637 37.202168 452.71637 36.342793Q451.482 35.483418 451.107 34.014668ZM469.07574 33.670918L471.81012 34.124043Q471.2945 35.624043 470.15387 36.420918Q469.01324 37.202168 467.31012 37.202168Q464.59137 37.202168 463.2945 35.436543Q462.27887 34.014668 462.27887 31.858418Q462.27887 29.280293 463.62262 27.827168Q464.96637 26.358418 467.02887 26.358418Q469.34137 26.358418 470.6695 27.889668Q472.01324 29.420918 471.96637 32.577168L465.09137 32.577168Q465.12262 33.795918 465.74762 34.483418Q466.38824 35.155293 467.32574 35.155293Q467.982 35.155293 468.4195 34.811543Q468.857 34.452168 469.07574 33.670918ZM469.232 30.889668Q469.20074 29.702168 468.607 29.092793Q468.02887 28.467793 467.20074 28.467793Q466.2945 28.467793 465.71637 29.108418Q465.12262 29.764668 465.13824 30.889668L469.232 30.889668ZM483.12262 29.655293L480.4195 30.155293Q480.27887 29.342793 479.7945 28.936543Q479.31012 28.514668 478.5445 28.514668Q477.51324 28.514668 476.90387 29.233418Q476.2945 29.936543 476.2945 31.592793Q476.2945 33.436543 476.90387 34.202168Q477.52887 34.967793 478.57574 34.967793Q479.357 34.967793 479.857 34.530293Q480.357 34.077168 480.56012 32.999043L483.24762 33.452168Q482.84137 35.311543 481.63824 36.264668Q480.45074 37.202168 478.45074 37.202168Q476.1695 37.202168 474.81012 35.764668Q473.46637 34.327168 473.46637 31.795918Q473.46637 29.217793 474.82574 27.795918Q476.18512 26.358418 478.49762 26.358418Q480.38824 26.358418 481.49762 27.186543Q482.62262 27.999043 483.12262 29.655293ZM484.43512 31.639668Q484.43512 30.264668 485.107 28.983418Q485.7945 27.702168 487.02887 27.030293Q488.26324 26.358418 489.77887 26.358418Q492.13824 26.358418 493.63824 27.889668Q495.13824 29.420918 495.13824 31.749043Q495.13824 34.108418 493.62262 35.655293Q492.107 37.202168 489.7945 37.202168Q488.37262 37.202168 487.07574 36.561543Q485.7945 35.905293 485.107 34.670918Q484.43512 33.420918 484.43512 31.639668ZM487.24762 31.780293Q487.24762 33.327168 487.982 34.155293Q488.71637 34.967793 489.7945 34.967793Q490.87262 34.967793 491.59137 34.155293Q492.32574 33.327168 492.32574 31.764668Q492.32574 30.233418 491.59137 29.420918Q490.87262 28.592793 489.7945 28.592793Q488.71637 28.592793 487.982 29.420918Q487.24762 30.233418 487.24762 31.780293ZM506.51324 36.967793L503.76324 36.967793L503.76324 31.670918Q503.76324 29.999043 503.59137 29.514668Q503.4195 29.014668 503.01324 28.749043Q502.62262 28.467793 502.06012 28.467793Q501.357 28.467793 500.77887 28.858418Q500.21637 29.249043 499.99762 29.889668Q499.7945 30.530293 499.7945 32.264668L499.7945 36.967793L497.06012 36.967793L497.06012 26.592793L499.607 26.592793L499.607 28.124043Q500.96637 26.358418 503.02887 26.358418Q503.93512 26.358418 504.68512 26.686543Q505.43512 27.014668 505.81012 27.530293Q506.20074 28.030293 506.357 28.686543Q506.51324 29.327168 506.51324 30.514668L506.51324 36.967793ZM518.5914 36.967793L516.0445 36.967793L516.0445 35.436543Q515.4039 36.327168 514.5289 36.764668Q513.6695 37.202168 512.7945 37.202168Q511.01324 37.202168 509.732 35.764668Q508.46637 34.327168 508.46637 31.749043Q508.46637 29.108418 509.70074 27.733418Q510.93512 26.358418 512.8414 26.358418Q514.57574 26.358418 515.8414 27.811543L515.8414 22.655293L518.5914 22.655293L518.5914 36.967793ZM511.26324 31.561543Q511.26324 33.217793 511.71637 33.952168Q512.38824 35.030293 513.57574 35.030293Q514.5289 35.030293 515.1851 34.233418Q515.857 33.420918 515.857 31.827168Q515.857 30.030293 515.20074 29.249043Q514.5601 28.467793 513.5601 28.467793Q512.57574 28.467793 511.9195 29.249043Q511.26324 30.014668 511.26324 31.561543ZM520.3101 41.170918Q521.1226 39.436543 521.45074 38.499043Q521.7945 37.577168 522.07574 36.374043Q522.357 35.155293 522.482 34.077168Q522.6226 32.983418 522.6226 31.842793Q522.6226 29.514668 522.1226 27.436543Q521.63824 25.358418 520.2945 22.405293L522.1539 22.405293Q523.63824 24.499043 524.45074 26.858418Q525.26324 29.217793 525.26324 31.639668Q525.26324 33.670918 524.6226 36.014668Q523.88824 38.624043 522.20074 41.170918L520.3101 41.170918Z" fill-rule="nonzero"/></svg>