<svg version="1.1" viewBox="0.0 0.0 600.0 371.0" fill="none" stroke="none" stroke-linecap="square" stroke-miterlimit="10" width="600" height="371" xmlns:xlink="http://www.w3.org/1999/xlink" xmlns="http://www.w3.org/2000/svg"><path fill="#ffffff" d="M0 0L600.0 0L600.0 371.0L0 371.0L0 0Z" fill-rule="nonzero"/><path stroke="#333333" stroke-width="1.0" stroke-linecap="butt" d="M47.5 81.5L47.5 332.5" fill-rule="nonzero"/><path stroke="#cccccc" stroke-width="1.0" stroke-linecap="butt" d="M181.5 81.5L181.5 332.5" fill-rule="nonzero"/><path stroke="#cccccc" stroke-width="1.0" stroke-linecap="butt" d="M314.5 81.5L314.5 332.5" fill-rule="nonzero"/><path stroke="#cccccc" stroke-width="1.0" stroke-linecap="butt" d="M447.5 81.5L447.5 332.5" fill-rule="nonzero"/><path stroke="#cccccc" stroke-width="1.0" stroke-linecap="butt" d="M581.5 81.5L581.5 332.5" fill-rule="nonzero"/><clipPath id="id_0"><path d="M47.55 81.28333L581.45 81.28333L581.45 332.45L47.55 332.45L47.55 81.28333Z" clip-rule="nonzero"/></clipPath><path stroke="#000000" stroke-width="2.0" stroke-linecap="butt" stroke-opacity="0.0" clip-path="url(#id_0)" d="M48.0 141.0L48.0 120.0L80.0 120.0C81.10457 120.0 82.0 120.89543 82.0 122.0L82.0 139.0C82.0 140.10457 81.10457 141.0 80.0 141.0Z" fill-rule="nonzero"/><path fill="#4285f4" clip-path="url(#id_0)" d="M48.0 141.0L48.0 120.0L80.0 120.0C81.10457 120.0 82.0 120.89543 82.0 122.0L82.0 139.0C82.0 140.10457 81.10457 141.0 80.0 141.0Z" fill-rule="nonzero"/><path stroke="#000000" stroke-width="2.0" stroke-linecap="butt" stroke-opacity="0.0" clip-path="url(#id_0)" d="M48.0 248.0L48.0 227.0L113.0 227.0C114.10457 227.0 115.0 227.89543 115.0 229.0L115.0 246.0C115.0 247.10457 114.10457 248.0 113.0 248.0Z" fill-rule="nonzero"/><path fill="#4285f4" clip-path="url(#id_0)" d="M48.0 248.0L48.0 227.0L113.0 227.0C114.10457 227.0 115.0 227.89543 115.0 229.0L115.0 246.0C115.0 247.10457 114.10457 248.0 113.0 248.0Z" fill-rule="nonzero"/><path stroke="#000000" stroke-width="2.0" stroke-linecap="butt" stroke-opacity="0.0" clip-path="url(#id_0)" d="M48.0 164.0L48.0 143.0L480.0 143.0C481.10458 143.0 482.0 143.89543 482.0 145.0L482.0 162.0C482.0 163.10457 481.10458 164.0 480.0 164.0Z" fill-rule="nonzero"/><path fill="#ea4335" clip-path="url(#id_0)" d="M48.0 164.0L48.0 143.0L480.0 143.0C481.10458 143.0 482.0 143.89543 482.0 145.0L482.0 162.0C482.0 163.10457 481.10458 164.0 480.0 164.0Z" fill-rule="nonzero"/><path stroke="#000000" stroke-width="2.0" stroke-linecap="butt" stroke-opacity="0.0" clip-path="url(#id_0)" d="M48.0 271.0L48.0 250.0L401.0 250.0C402.10458 250.0 403.0 250.89543 403.0 252.0L403.0 269.0C403.0 270.10458 402.10458 271.0 401.0 271.0Z" fill-rule="nonzero"/><path fill="#ea4335" clip-path="url(#id_0)" d="M48.0 271.0L48.0 250.0L401.0 250.0C402.10458 250.0 403.0 250.89543 403.0 252.0L403.0 269.0C403.0 270.10458 402.10458 271.0 401.0 271.0Z" fill-rule="nonzero"/><path stroke="#000000" stroke-width="2.0" stroke-linecap="butt" stroke-opacity="0.0" clip-path="url(#id_0)" d="M48.0 187.0L48.0 166.0L553.0 166.0C554.10455 166.0 555.0 166.89543 555.0 168.0L555.0 185.0C555.0 186.10457 554.10455 187.0 553.0 187.0Z" fill-rule="nonzero"/><path fill="#fbbc04" clip-path="url(#id_0)" d="M48.0 187.0L48.0 166.0L553.0 166.0C554.10455 166.0 555.0 166.89543 555.0 168.0L555.0 185.0C555.0 186.10457 554.10455 187.0 553.0 187.0Z" fill-rule="nonzero"/><path stroke="#000000" stroke-width="2.0" stroke-linecap="butt" stroke-opacity="0.0" clip-path="url(#id_0)" d="M48.0 294.0L48.0 273.0L473.0 273.0C474.10458 273.0 475.0 273.89542 475.0 275.0L475.0 292.0C475.0 293.10458 474.10458 294.0 473.0 294.0Z" fill-rule="nonzero"/><path fill="#fbbc04" clip-path="url(#id_0)" d="M48.0 294.0L48.0 273.0L473.0 273.0C474.10458 273.0 475.0 273.89542 475.0 275.0L475.0 292.0C475.0 293.10458 474.10458 294.0 473.0 294.0Z" fill-rule="nonzero"/><path fill="#000000" d="M25.9875 156.50508Q26.784374 157.05196 27.440624 157.30196L27.1125 158.09883Q26.190624 157.75508 25.26875 157.03633Q24.315624 157.56758 23.159374 157.56758Q21.9875 157.56758 21.034374 157.00508Q20.096874 156.44258 19.58125 155.42696Q19.065624 154.41133 19.065624 153.13008Q19.065624 151.86446 19.58125 150.81758Q20.096874 149.7707 21.05 149.22383Q22.003124 148.67696 23.175 148.67696Q24.3625 148.67696 25.315624 149.25508Q26.284374 149.81758 26.784374 150.8332Q27.284374 151.84883 27.284374 153.13008Q27.284374 154.19258 26.95625 155.03633Q26.64375 155.88008 25.9875 156.50508ZM23.4875 155.05196Q24.471874 155.3332 25.1125 155.88008Q26.1125 154.9582 26.1125 153.13008Q26.1125 152.0832 25.753124 151.30196Q25.39375 150.5207 24.70625 150.09883Q24.034374 149.66133 23.190624 149.66133Q21.909374 149.66133 21.065624 150.53633Q20.2375 151.3957 20.2375 153.13008Q20.2375 154.80196 21.065624 155.7082Q21.89375 156.59883 23.190624 156.59883Q23.8 156.59883 24.33125 156.36446Q23.8 156.0207 23.20625 155.88008L23.4875 155.05196ZM28.159374 157.56758L28.659374 155.0832L27.675 155.0832L27.675 154.2082L28.846874 154.2082L29.26875 152.0832L27.675 152.0832L27.675 151.2082L29.45625 151.2082L29.95625 148.69258L30.83125 148.69258L30.33125 151.2082L32.175 151.2082L32.690624 148.69258L33.565624 148.69258L33.065624 151.2082L34.065624 151.2082L34.065624 152.0832L32.878124 152.0832L32.440624 154.2082L34.065624 154.2082L34.065624 155.0832L32.26875 155.0832L31.753124 157.56758L30.878124 157.56758L31.378124 155.0832L29.55 155.0832L29.034374 157.56758L28.159374 157.56758ZM29.721874 154.2082L31.565624 154.2082L32.003124 152.0832L30.159374 152.0832L29.721874 154.2082ZM40.596874 156.41133L40.596874 157.42696L34.909374 157.42696Q34.909374 157.05196 35.034374 156.69258Q35.253124 156.11446 35.721874 155.55196Q36.20625 154.98946 37.1125 154.25508Q38.51875 153.09883 39.003124 152.42696Q39.503124 151.75508 39.503124 151.16133Q39.503124 150.53633 39.05 150.11446Q38.596874 149.67696 37.878124 149.67696Q37.1125 149.67696 36.659374 150.13008Q36.20625 150.5832 36.190624 151.3957L35.1125 151.28633Q35.221874 150.06758 35.940624 149.44258Q36.675 148.80196 37.909374 148.80196Q39.14375 148.80196 39.8625 149.48946Q40.58125 150.17696 40.58125 151.19258Q40.58125 151.7082 40.3625 152.2082Q40.159374 152.69258 39.659374 153.25508Q39.175 153.80196 38.05 154.75508Q37.096874 155.55196 36.815624 155.84883Q36.55 156.13008 36.378124 156.41133L40.596874 156.41133Z" fill-rule="nonzero"/><path fill="#000000" d="M25.9875 263.38452Q26.784374 263.9314 27.440624 264.1814L27.1125 264.97827Q26.190624 264.63452 25.26875 263.91577Q24.315624 264.44702 23.159374 264.44702Q21.9875 264.44702 21.034374 263.88452Q20.096874 263.32202 19.58125 262.3064Q19.065624 261.29077 19.065624 260.00952Q19.065624 258.7439 19.58125 257.69702Q20.096874 256.65015 21.05 256.10327Q22.003124 255.5564 23.175 255.5564Q24.3625 255.5564 25.315624 256.13452Q26.284374 256.69702 26.784374 257.71265Q27.284374 258.72827 27.284374 260.00952Q27.284374 261.07202 26.95625 261.91577Q26.64375 262.75952 25.9875 263.38452ZM23.4875 261.9314Q24.471874 262.21265 25.1125 262.75952Q26.1125 261.83765 26.1125 260.00952Q26.1125 258.96265 25.753124 258.1814Q25.39375 257.40015 24.70625 256.97827Q24.034374 256.54077 23.190624 256.54077Q21.909374 256.54077 21.065624 257.41577Q20.2375 258.27515 20.2375 260.00952Q20.2375 261.6814 21.065624 262.58765Q21.89375 263.47827 23.190624 263.47827Q23.8 263.47827 24.33125 263.2439Q23.8 262.90015 23.20625 262.75952L23.4875 261.9314ZM28.159374 264.44702L28.659374 261.96265L27.675 261.96265L27.675 261.08765L28.846874 261.08765L29.26875 258.96265L27.675 258.96265L27.675 258.08765L29.45625 258.08765L29.95625 255.57202L30.83125 255.57202L30.33125 258.08765L32.175 258.08765L32.690624 255.57202L33.565624 255.57202L33.065624 258.08765L34.065624 258.08765L34.065624 258.96265L32.878124 258.96265L32.440624 261.08765L34.065624 261.08765L34.065624 261.96265L32.26875 261.96265L31.753124 264.44702L30.878124 264.44702L31.378124 261.96265L29.55 261.96265L29.034374 264.44702L28.159374 264.44702ZM29.721874 261.08765L31.565624 261.08765L32.003124 258.96265L30.159374 258.96265L29.721874 261.08765ZM38.425 264.3064L38.425 262.2439L34.70625 262.2439L34.70625 261.27515L38.628124 255.71265L39.4875 255.71265L39.4875 261.27515L40.64375 261.27515L40.64375 262.2439L39.4875 262.2439L39.4875 264.3064L38.425 264.3064ZM38.425 261.27515L38.425 257.41577L35.7375 261.27515L38.425 261.27515Z" fill-rule="nonzero"/><path fill="#000000" d="M44.55 345.21564Q44.55 343.6844 44.8625 342.7625Q45.175 341.825 45.784374 341.325Q46.409374 340.825 47.346874 340.825Q48.034374 340.825 48.55 341.10626Q49.08125 341.3875 49.425 341.91876Q49.76875 342.4344 49.95625 343.1844Q50.14375 343.9344 50.14375 345.21564Q50.14375 346.73126 49.83125 347.65314Q49.534374 348.575 48.909374 349.09064Q48.3 349.59064 47.346874 349.59064Q46.1125 349.59064 45.39375 348.7Q44.55 347.6375 44.55 345.21564ZM45.628124 345.21564Q45.628124 347.325 46.128124 348.02814Q46.628124 348.73126 47.346874 348.73126Q48.08125 348.73126 48.565624 348.02814Q49.065624 347.325 49.065624 345.21564Q49.065624 343.09064 48.565624 342.40314Q48.08125 341.7 47.33125 341.7Q46.6125 341.7 46.175 342.3094Q45.628124 343.09064 45.628124 345.21564Z" fill-rule="nonzero"/><path fill="#000000" d="M180.07187 348.4344L180.07187 349.45L174.38437 349.45Q174.38437 349.075 174.50937 348.71564Q174.72812 348.1375 175.19687 347.575Q175.68124 347.0125 176.5875 346.27814Q177.99374 345.1219 178.47812 344.45Q178.97812 343.77814 178.97812 343.1844Q178.97812 342.5594 178.525 342.1375Q178.07187 341.7 177.35312 341.7Q176.5875 341.7 176.13437 342.15314Q175.68124 342.60626 175.66562 343.41876L174.5875 343.3094Q174.69687 342.09064 175.41562 341.46564Q176.15 340.825 177.38437 340.825Q178.61874 340.825 179.3375 341.5125Q180.05624 342.2 180.05624 343.21564Q180.05624 343.73126 179.8375 344.23126Q179.63437 344.71564 179.13437 345.27814Q178.65 345.825 177.525 346.77814Q176.57187 347.575 176.29062 347.8719Q176.025 348.15314 175.85312 348.4344L180.07187 348.4344ZM181.525 347.2L182.63437 347.10626Q182.75937 347.91876 183.19687 348.325Q183.65 348.73126 184.29062 348.73126Q185.04062 348.73126 185.57187 348.15314Q186.10312 347.575 186.10312 346.6375Q186.10312 345.73126 185.5875 345.21564Q185.0875 344.6844 184.25937 344.6844Q183.75937 344.6844 183.3375 344.91876Q182.93124 345.15314 182.69687 345.5125L181.7125 345.3875L182.54062 340.98126L186.82187 340.98126L186.82187 341.98126L183.38437 341.98126L182.93124 344.29376Q183.69687 343.7469 184.54062 343.7469Q185.66562 343.7469 186.43124 344.52814Q187.2125 345.3094 187.2125 346.54376Q187.2125 347.7 186.54062 348.5594Q185.7125 349.59064 184.29062 349.59064Q183.11874 349.59064 182.36874 348.9344Q181.63437 348.27814 181.525 347.2Z" fill-rule="nonzero"/><path fill="#000000" d="M308.0 347.2L309.10938 347.10626Q309.23438 347.91876 309.67188 348.325Q310.125 348.73126 310.76562 348.73126Q311.51562 348.73126 312.04688 348.15314Q312.57812 347.575 312.57812 346.6375Q312.57812 345.73126 312.0625 345.21564Q311.5625 344.6844 310.73438 344.6844Q310.23438 344.6844 309.8125 344.91876Q309.40625 345.15314 309.17188 345.5125L308.1875 345.3875L309.01562 340.98126L313.29688 340.98126L313.29688 341.98126L309.85938 341.98126L309.40625 344.29376Q310.17188 343.7469 311.01562 343.7469Q312.14062 343.7469 312.90625 344.52814Q313.6875 345.3094 313.6875 346.54376Q313.6875 347.7 313.01562 348.5594Q312.1875 349.59064 310.76562 349.59064Q309.59375 349.59064 308.84375 348.9344Q308.10938 348.27814 308.0 347.2ZM315.0 345.21564Q315.0 343.6844 315.3125 342.7625Q315.625 341.825 316.23438 341.325Q316.85938 340.825 317.79688 340.825Q318.48438 340.825 319.0 341.10626Q319.53125 341.3875 319.875 341.91876Q320.21875 342.4344 320.40625 343.1844Q320.59375 343.9344 320.59375 345.21564Q320.59375 346.73126 320.28125 347.65314Q319.98438 348.575 319.35938 349.09064Q318.75 349.59064 317.79688 349.59064Q316.5625 349.59064 315.84375 348.7Q315.0 347.6375 315.0 345.21564ZM316.07812 345.21564Q316.07812 347.325 316.57812 348.02814Q317.07812 348.73126 317.79688 348.73126Q318.53125 348.73126 319.01562 348.02814Q319.51562 347.325 319.51562 345.21564Q319.51562 343.09064 319.01562 342.40314Q318.53125 341.7 317.78125 341.7Q317.0625 341.7 316.625 342.3094Q316.07812 343.09064 316.07812 345.21564Z" fill-rule="nonzero"/><path fill="#000000" d="M441.5375 341.98126L441.5375 340.96564L447.1 340.96564L447.1 341.79376Q446.2875 342.66876 445.475 344.1219Q444.67813 345.5594 444.24063 347.09064Q443.9125 348.16876 443.83438 349.45L442.74063 349.45Q442.75626 348.4344 443.13126 346.9969Q443.52188 345.5594 444.225 344.23126Q444.94376 342.90314 445.75626 341.98126L441.5375 341.98126ZM448.475 347.2L449.58438 347.10626Q449.70938 347.91876 450.14688 348.325Q450.6 348.73126 451.24063 348.73126Q451.99063 348.73126 452.52188 348.15314Q453.05313 347.575 453.05313 346.6375Q453.05313 345.73126 452.5375 345.21564Q452.0375 344.6844 451.20938 344.6844Q450.70938 344.6844 450.2875 344.91876Q449.88126 345.15314 449.64688 345.5125L448.6625 345.3875L449.49063 340.98126L453.77188 340.98126L453.77188 341.98126L450.33438 341.98126L449.88126 344.29376Q450.64688 343.7469 451.49063 343.7469Q452.61563 343.7469 453.38126 344.52814Q454.1625 345.3094 454.1625 346.54376Q454.1625 347.7 453.49063 348.5594Q452.6625 349.59064 451.24063 349.59064Q450.06876 349.59064 449.31876 348.9344Q448.58438 348.27814 448.475 347.2Z" fill-rule="nonzero"/><path fill="#000000" d="M575.41876 349.45L574.3719 349.45L574.3719 342.73126Q573.98126 343.09064 573.35626 343.46564Q572.7469 343.825 572.2625 343.9969L572.2625 342.98126Q573.1375 342.5594 573.79376 341.98126Q574.46564 341.3875 574.7469 340.825L575.41876 340.825L575.41876 349.45ZM578.45 345.21564Q578.45 343.6844 578.7625 342.7625Q579.075 341.825 579.6844 341.325Q580.3094 340.825 581.2469 340.825Q581.9344 340.825 582.45 341.10626Q582.98126 341.3875 583.325 341.91876Q583.66876 342.4344 583.85626 343.1844Q584.04376 343.9344 584.04376 345.21564Q584.04376 346.73126 583.73126 347.65314Q583.4344 348.575 582.8094 349.09064Q582.2 349.59064 581.2469 349.59064Q580.0125 349.59064 579.29376 348.7Q578.45 347.6375 578.45 345.21564ZM579.52814 345.21564Q579.52814 347.325 580.02814 348.02814Q580.52814 348.73126 581.2469 348.73126Q581.98126 348.73126 582.46564 348.02814Q582.96564 347.325 582.96564 345.21564Q582.96564 343.09064 582.46564 342.40314Q581.98126 341.7 581.23126 341.7Q580.5125 341.7 580.075 342.3094Q579.52814 343.09064 579.52814 345.21564ZM585.45 345.21564Q585.45 343.6844 585.7625 342.7625Q586.075 341.825 586.6844 341.325Q587.3094 340.825 588.2469 340.825Q588.9344 340.825 589.45 341.10626Q589.98126 341.3875 590.325 341.91876Q590.66876 342.4344 590.85626 343.1844Q591.04376 343.9344 591.04376 345.21564Q591.04376 346.73126 590.73126 347.65314Q590.4344 348.575 589.8094 349.09064Q589.2 349.59064 588.2469 349.59064Q587.0125 349.59064 586.29376 348.7Q585.45 347.6375 585.45 345.21564ZM586.52814 345.21564Q586.52814 347.325 587.02814 348.02814Q587.52814 348.73126 588.2469 348.73126Q588.98126 348.73126 589.46564 348.02814Q589.96564 347.325 589.96564 345.21564Q589.96564 343.09064 589.46564 342.40314Q588.98126 341.7 588.23126 341.7Q587.5125 341.7 587.075 342.3094Q586.52814 343.09064 586.52814 345.21564Z" fill-rule="nonzero"/><path fill="#4285f4" d="M116.5 56.916668C116.5 56.364384 116.947716 55.916668 117.5 55.916668L127.5 55.916668C128.05229 55.916668 128.5 56.364384 128.5 56.916668L128.5 66.916664C128.5 67.46895 128.05229 67.916664 127.5 67.916664L117.5 67.916664C116.947716 67.916664 116.5 67.46895 116.5 66.916664Z" fill-rule="nonzero"/><path fill="#1a1a1a" d="M143.5625 62.90104L144.6875 63.197914Q144.32812 64.58854 143.40625 65.322914Q142.48438 66.05729 141.14062 66.05729Q139.75 66.05729 138.875 65.49479Q138.0 64.93229 137.54688 63.86979Q137.09375 62.791664 137.09375 61.55729Q137.09375 60.21354 137.60938 59.21354Q138.125 58.21354 139.0625 57.697914Q140.01562 57.18229 141.15625 57.18229Q142.4375 57.18229 143.3125 57.83854Q144.20312 58.49479 144.54688 59.68229L143.42188 59.947914Q143.125 59.010414 142.54688 58.58854Q141.98438 58.15104 141.125 58.15104Q140.14062 58.15104 139.46875 58.635414Q138.8125 59.104164 138.53125 59.90104Q138.26562 60.697914 138.26562 61.55729Q138.26562 62.65104 138.57812 63.46354Q138.90625 64.27604 139.57812 64.68229Q140.25 65.08854 141.04688 65.08854Q142.0 65.08854 142.65625 64.541664Q143.32812 63.99479 143.5625 62.90104ZM146.26562 65.916664L146.26562 57.322914L147.32812 57.322914L147.32812 65.916664L146.26562 65.916664ZM149.29688 58.541664L149.29688 57.322914L150.35938 57.322914L150.35938 58.541664L149.29688 58.541664ZM149.29688 65.916664L149.29688 59.697914L150.35938 59.697914L150.35938 65.916664L149.29688 65.916664ZM156.35938 63.635414L157.39062 63.77604Q157.21875 64.83854 156.51562 65.447914Q155.8125 66.05729 154.79688 66.05729Q153.51562 66.05729 152.73438 65.229164Q151.96875 64.385414 151.96875 62.822914Q151.96875 61.822914 152.29688 61.072914Q152.64062 60.30729 153.3125 59.93229Q154.0 59.55729 154.8125 59.55729Q155.8125 59.55729 156.45312 60.072914Q157.10938 60.572914 157.29688 61.52604L156.26562 61.68229Q156.125 61.05729 155.75 60.74479Q155.375 60.416664 154.84375 60.416664Q154.04688 60.416664 153.54688 60.99479Q153.04688 61.55729 153.04688 62.791664Q153.04688 64.05729 153.53125 64.61979Q154.01562 65.18229 154.78125 65.18229Q155.40625 65.18229 155.8125 64.80729Q156.23438 64.43229 156.35938 63.635414ZM158.29688 65.916664L158.29688 57.322914L159.35938 57.322914L159.35938 62.229164L161.84375 59.697914L163.21875 59.697914L160.82812 61.99479L163.45312 65.916664L162.15625 65.916664L160.09375 62.729164L159.35938 63.447914L159.35938 65.916664L158.29688 65.916664ZM164.46875 65.916664L164.46875 57.322914L165.59375 57.322914L165.59375 60.854164L170.0625 60.854164L170.0625 57.322914L171.20312 57.322914L171.20312 65.916664L170.0625 65.916664L170.0625 61.86979L165.59375 61.86979L165.59375 65.916664L164.46875 65.916664ZM172.90625 62.80729Q172.90625 61.072914 173.85938 60.24479Q174.65625 59.55729 175.8125 59.55729Q177.09375 59.55729 177.90625 60.40104Q178.73438 61.229164 178.73438 62.71354Q178.73438 63.916664 178.375 64.604164Q178.01562 65.291664 177.3125 65.68229Q176.625 66.05729 175.8125 66.05729Q174.51562 66.05729 173.70312 65.229164Q172.90625 64.385414 172.90625 62.80729ZM173.98438 62.80729Q173.98438 63.99479 174.5 64.58854Q175.03125 65.18229 175.8125 65.18229Q176.60938 65.18229 177.125 64.58854Q177.64062 63.99479 177.64062 62.77604Q177.64062 61.61979 177.10938 61.02604Q176.59375 60.43229 175.8125 60.43229Q175.03125 60.43229 174.5 61.02604Q173.98438 61.604164 173.98438 62.80729ZM184.375 65.916664L184.375 64.99479Q183.64062 66.05729 182.39062 66.05729Q181.84375 66.05729 181.35938 65.854164Q180.89062 65.635414 180.65625 65.322914Q180.42188 64.99479 180.32812 64.52604Q180.26562 64.229164 180.26562 63.541664L180.26562 59.697914L181.32812 59.697914L181.32812 63.15104Q181.32812 63.96354 181.39062 64.260414Q181.48438 64.666664 181.79688 64.916664Q182.125 65.15104 182.60938 65.15104Q183.07812 65.15104 183.48438 64.916664Q183.90625 64.666664 184.07812 64.24479Q184.26562 63.822914 184.26562 63.02604L184.26562 59.697914L185.3125 59.697914L185.3125 65.916664L184.375 65.916664ZM186.875 64.05729L187.90625 63.90104Q188.0 64.52604 188.39062 64.854164Q188.79688 65.18229 189.53125 65.18229Q190.25 65.18229 190.59375 64.90104Q190.95312 64.604164 190.95312 64.197914Q190.95312 63.83854 190.64062 63.635414Q190.42188 63.49479 189.5625 63.27604Q188.40625 62.979164 187.95312 62.77604Q187.51562 62.55729 187.28125 62.18229Q187.04688 61.80729 187.04688 61.33854Q187.04688 60.93229 187.23438 60.572914Q187.42188 60.21354 187.75 59.979164Q188.0 59.80729 188.42188 59.68229Q188.84375 59.55729 189.34375 59.55729Q190.0625 59.55729 190.60938 59.77604Q191.17188 59.979164 191.4375 60.33854Q191.70312 60.697914 191.79688 61.291664L190.76562 61.43229Q190.70312 60.96354 190.35938 60.697914Q190.03125 60.416664 189.40625 60.416664Q188.6875 60.416664 188.375 60.666664Q188.0625 60.90104 188.0625 61.229164Q188.0625 61.43229 188.1875 61.58854Q188.32812 61.760414 188.59375 61.86979Q188.75 61.93229 189.53125 62.135414Q190.65625 62.447914 191.09375 62.635414Q191.53125 62.822914 191.78125 63.18229Q192.03125 63.541664 192.03125 64.08854Q192.03125 64.61979 191.71875 65.08854Q191.42188 65.541664 190.84375 65.80729Q190.26562 66.05729 189.53125 66.05729Q188.3125 66.05729 187.67188 65.55729Q187.04688 65.041664 186.875 64.05729ZM198.54688 63.916664L199.64062 64.041664Q199.39062 64.99479 198.6875 65.52604Q197.98438 66.05729 196.90625 66.05729Q195.54688 66.05729 194.73438 65.21354Q193.9375 64.36979 193.9375 62.854164Q193.9375 61.291664 194.75 60.43229Q195.5625 59.55729 196.84375 59.55729Q198.09375 59.55729 198.875 60.40104Q199.67188 61.24479 199.67188 62.791664Q199.67188 62.885414 199.67188 63.072914L195.03125 63.072914Q195.09375 64.104164 195.60938 64.65104Q196.125 65.18229 196.90625 65.18229Q197.48438 65.18229 197.89062 64.885414Q198.3125 64.572914 198.54688 63.916664ZM195.09375 62.21354L198.5625 62.21354Q198.5 61.416664 198.17188 61.02604Q197.65625 60.416664 196.85938 60.416664Q196.125 60.416664 195.625 60.90104Q195.14062 61.385414 195.09375 62.21354ZM208.54688 63.916664L209.64062 64.041664Q209.39062 64.99479 208.6875 65.52604Q207.98438 66.05729 206.90625 66.05729Q205.54688 66.05729 204.73438 65.21354Q203.9375 64.36979 203.9375 62.854164Q203.9375 61.291664 204.75 60.43229Q205.5625 59.55729 206.84375 59.55729Q208.09375 59.55729 208.875 60.40104Q209.67188 61.24479 209.67188 62.791664Q209.67188 62.885414 209.67188 63.072914L205.03125 63.072914Q205.09375 64.104164 205.60938 64.65104Q206.125 65.18229 206.90625 65.18229Q207.48438 65.18229 207.89062 64.885414Q208.3125 64.572914 208.54688 63.916664ZM205.09375 62.21354L208.5625 62.21354Q208.5 61.416664 208.17188 61.02604Q207.65625 60.416664 206.85938 60.416664Q206.125 60.416664 205.625 60.90104Q205.14062 61.385414 205.09375 62.21354ZM216.54688 64.90104L216.54688 65.916664L210.85938 65.916664Q210.85938 65.541664 210.98438 65.18229Q211.20312 64.604164 211.67188 64.041664Q212.15625 63.479164 213.0625 62.74479Q214.46875 61.58854 214.95312 60.916664Q215.45312 60.24479 215.45312 59.65104Q215.45312 59.02604 215.0 58.604164Q214.54688 58.166664 213.82812 58.166664Q213.0625 58.166664 212.60938 58.61979Q212.15625 59.072914 212.14062 59.885414L211.0625 59.77604Q211.17188 58.55729 211.89062 57.93229Q212.625 57.291664 213.85938 57.291664Q215.09375 57.291664 215.8125 57.979164Q216.53125 58.666664 216.53125 59.68229Q216.53125 60.197914 216.3125 60.697914Q216.10938 61.18229 215.60938 61.74479Q215.125 62.291664 214.0 63.24479Q213.04688 64.041664 212.76562 64.33854Q212.5 64.61979 212.32812 64.90104L216.54688 64.90104ZM222.54688 63.916664L223.64062 64.041664Q223.39062 64.99479 222.6875 65.52604Q221.98438 66.05729 220.90625 66.05729Q219.54688 66.05729 218.73438 65.21354Q217.9375 64.36979 217.9375 62.854164Q217.9375 61.291664 218.75 60.43229Q219.5625 59.55729 220.84375 59.55729Q222.09375 59.55729 222.875 60.40104Q223.67188 61.24479 223.67188 62.791664Q223.67188 62.885414 223.67188 63.072914L219.03125 63.072914Q219.09375 64.104164 219.60938 64.65104Q220.125 65.18229 220.90625 65.18229Q221.48438 65.18229 221.89062 64.885414Q222.3125 64.572914 222.54688 63.916664ZM219.09375 62.21354L222.5625 62.21354Q222.5 61.416664 222.17188 61.02604Q221.65625 60.416664 220.85938 60.416664Q220.125 60.416664 219.625 60.90104Q219.14062 61.385414 219.09375 62.21354Z" fill-rule="nonzero"/><path fill="#ea4335" d="M240.5 56.916668C240.5 56.364384 240.94771 55.916668 241.5 55.916668L251.5 55.916668C252.05229 55.916668 252.5 56.364384 252.5 56.916668L252.5 66.916664C252.5 67.46895 252.05229 67.916664 251.5 67.916664L241.5 67.916664C240.94771 67.916664 240.5 67.46895 240.5 66.916664Z" fill-rule="nonzero"/><path fill="#1a1a1a" d="M263.60938 65.916664L263.60938 58.33854L260.78125 58.33854L260.78125 57.322914L267.59375 57.322914L267.59375 58.33854L264.75 58.33854L264.75 65.916664L263.60938 65.916664ZM272.54688 63.916664L273.64062 64.041664Q273.39062 64.99479 272.6875 65.52604Q271.98438 66.05729 270.90625 66.05729Q269.54688 66.05729 268.73438 65.21354Q267.9375 64.36979 267.9375 62.854164Q267.9375 61.291664 268.75 60.43229Q269.5625 59.55729 270.84375 59.55729Q272.09375 59.55729 272.875 60.40104Q273.67188 61.24479 273.67188 62.791664Q273.67188 62.885414 273.67188 63.072914L269.03125 63.072914Q269.09375 64.104164 269.60938 64.65104Q270.125 65.18229 270.90625 65.18229Q271.48438 65.18229 271.89062 64.885414Q272.3125 64.572914 272.54688 63.916664ZM269.09375 62.21354L272.5625 62.21354Q272.5 61.416664 272.17188 61.02604Q271.65625 60.416664 270.85938 60.416664Q270.125 60.416664 269.625 60.90104Q269.14062 61.385414 269.09375 62.21354ZM275.29688 65.916664L275.29688 59.697914L276.23438 59.697914L276.23438 60.572914Q276.92188 59.55729 278.21875 59.55729Q278.78125 59.55729 279.25 59.760414Q279.73438 59.96354 279.96875 60.291664Q280.20312 60.61979 280.29688 61.05729Q280.34375 61.354164 280.34375 62.08854L280.34375 65.916664L279.29688 65.916664L279.29688 62.135414Q279.29688 61.479164 279.17188 61.166664Q279.04688 60.854164 278.73438 60.666664Q278.42188 60.46354 278.0 60.46354Q277.32812 60.46354 276.82812 60.90104Q276.34375 61.322914 276.34375 62.510414L276.34375 65.916664L275.29688 65.916664ZM281.875 64.05729L282.90625 63.90104Q283.0 64.52604 283.39062 64.854164Q283.79688 65.18229 284.53125 65.18229Q285.25 65.18229 285.59375 64.90104Q285.95312 64.604164 285.95312 64.197914Q285.95312 63.83854 285.64062 63.635414Q285.42188 63.49479 284.5625 63.27604Q283.40625 62.979164 282.95312 62.77604Q282.51562 62.55729 282.28125 62.18229Q282.04688 61.80729 282.04688 61.33854Q282.04688 60.93229 282.23438 60.572914Q282.42188 60.21354 282.75 59.979164Q283.0 59.80729 283.42188 59.68229Q283.84375 59.55729 284.34375 59.55729Q285.0625 59.55729 285.60938 59.77604Q286.17188 59.979164 286.4375 60.33854Q286.70312 60.697914 286.79688 61.291664L285.76562 61.43229Q285.70312 60.96354 285.35938 60.697914Q285.03125 60.416664 284.40625 60.416664Q283.6875 60.416664 283.375 60.666664Q283.0625 60.90104 283.0625 61.229164Q283.0625 61.43229 283.1875 61.58854Q283.32812 61.760414 283.59375 61.86979Q283.75 61.93229 284.53125 62.135414Q285.65625 62.447914 286.09375 62.635414Q286.53125 62.822914 286.78125 63.18229Q287.03125 63.541664 287.03125 64.08854Q287.03125 64.61979 286.71875 65.08854Q286.42188 65.541664 285.84375 65.80729Q285.26562 66.05729 284.53125 66.05729Q283.3125 66.05729 282.67188 65.55729Q282.04688 65.041664 281.875 64.05729ZM288.90625 62.80729Q288.90625 61.072914 289.85938 60.24479Q290.65625 59.55729 291.8125 59.55729Q293.09375 59.55729 293.90625 60.40104Q294.73438 61.229164 294.73438 62.71354Q294.73438 63.916664 294.375 64.604164Q294.01562 65.291664 293.3125 65.68229Q292.625 66.05729 291.8125 66.05729Q290.51562 66.05729 289.70312 65.229164Q288.90625 64.385414 288.90625 62.80729ZM289.98438 62.80729Q289.98438 63.99479 290.5 64.58854Q291.03125 65.18229 291.8125 65.18229Q292.60938 65.18229 293.125 64.58854Q293.64062 63.99479 293.64062 62.77604Q293.64062 61.61979 293.10938 61.02604Q292.59375 60.43229 291.8125 60.43229Q291.03125 60.43229 290.5 61.02604Q289.98438 61.604164 289.98438 62.80729ZM296.28125 65.916664L296.28125 59.697914L297.23438 59.697914L297.23438 60.635414Q297.59375 59.979164 297.89062 59.77604Q298.20312 59.55729 298.57812 59.55729Q299.10938 59.55729 299.65625 59.885414L299.29688 60.86979Q298.90625 60.635414 298.53125 60.635414Q298.17188 60.635414 297.89062 60.854164Q297.625 61.05729 297.51562 61.43229Q297.32812 61.99479 297.32812 62.65104L297.32812 65.916664L296.28125 65.916664ZM300.375 65.916664L300.375 57.322914L303.60938 57.322914Q304.59375 57.322914 305.1875 57.58854Q305.78125 57.854164 306.10938 58.40104Q306.45312 58.93229 306.45312 59.52604Q306.45312 60.072914 306.15625 60.55729Q305.85938 61.041664 305.25 61.33854Q306.03125 61.572914 306.4375 62.135414Q306.85938 62.68229 306.85938 63.43229Q306.85938 64.02604 306.60938 64.55729Q306.35938 65.072914 305.98438 65.354164Q305.60938 65.635414 305.03125 65.77604Q304.46875 65.916664 303.65625 65.916664L300.375 65.916664ZM301.51562 60.93229L303.375 60.93229Q304.125 60.93229 304.45312 60.83854Q304.89062 60.71354 305.10938 60.416664Q305.32812 60.104164 305.32812 59.65104Q305.32812 59.229164 305.125 58.90104Q304.92188 58.572914 304.53125 58.46354Q304.15625 58.33854 303.23438 58.33854L301.51562 58.33854L301.51562 60.93229ZM301.51562 64.90104L303.65625 64.90104Q304.20312 64.90104 304.42188 64.854164Q304.82812 64.791664 305.07812 64.635414Q305.34375 64.46354 305.51562 64.15104Q305.6875 63.83854 305.6875 63.43229Q305.6875 62.947914 305.4375 62.58854Q305.20312 62.229164 304.76562 62.08854Q304.32812 61.947914 303.5 61.947914L301.51562 61.947914L301.51562 64.90104ZM312.35938 65.15104Q311.76562 65.65104 311.21875 65.854164Q310.6875 66.05729 310.0625 66.05729Q309.03125 66.05729 308.48438 65.55729Q307.9375 65.05729 307.9375 64.27604Q307.9375 63.822914 308.14062 63.447914Q308.34375 63.05729 308.6875 62.83854Q309.03125 62.604164 309.45312 62.49479Q309.75 62.40104 310.39062 62.322914Q311.65625 62.18229 312.26562 61.96354Q312.26562 61.74479 312.26562 61.697914Q312.26562 61.041664 311.96875 60.77604Q311.5625 60.43229 310.76562 60.43229Q310.03125 60.43229 309.67188 60.697914Q309.3125 60.947914 309.14062 61.604164L308.10938 61.46354Q308.25 60.80729 308.57812 60.40104Q308.90625 59.99479 309.51562 59.77604Q310.125 59.55729 310.92188 59.55729Q311.71875 59.55729 312.21875 59.74479Q312.71875 59.93229 312.95312 60.21354Q313.1875 60.49479 313.28125 60.93229Q313.32812 61.197914 313.32812 61.90104L313.32812 63.30729Q313.32812 64.77604 313.39062 65.166664Q313.46875 65.55729 313.67188 65.916664L312.5625 65.916664Q312.40625 65.58854 312.35938 65.15104ZM312.26562 62.791664Q311.6875 63.02604 310.54688 63.197914Q309.89062 63.291664 309.625 63.416664Q309.35938 63.52604 309.20312 63.74479Q309.0625 63.96354 309.0625 64.24479Q309.0625 64.666664 309.375 64.947914Q309.70312 65.229164 310.3125 65.229164Q310.92188 65.229164 311.39062 64.96354Q311.875 64.697914 312.09375 64.229164Q312.26562 63.86979 312.26562 63.18229L312.26562 62.791664ZM314.875 64.05729L315.90625 63.90104Q316.0 64.52604 316.39062 64.854164Q316.79688 65.18229 317.53125 65.18229Q318.25 65.18229 318.59375 64.90104Q318.95312 64.604164 318.95312 64.197914Q318.95312 63.83854 318.64062 63.635414Q318.42188 63.49479 317.5625 63.27604Q316.40625 62.979164 315.95312 62.77604Q315.51562 62.55729 315.28125 62.18229Q315.04688 61.80729 315.04688 61.33854Q315.04688 60.93229 315.23438 60.572914Q315.42188 60.21354 315.75 59.979164Q316.0 59.80729 316.42188 59.68229Q316.84375 59.55729 317.34375 59.55729Q318.0625 59.55729 318.60938 59.77604Q319.17188 59.979164 319.4375 60.33854Q319.70312 60.697914 319.79688 61.291664L318.76562 61.43229Q318.70312 60.96354 318.35938 60.697914Q318.03125 60.416664 317.40625 60.416664Q316.6875 60.416664 316.375 60.666664Q316.0625 60.90104 316.0625 61.229164Q316.0625 61.43229 316.1875 61.58854Q316.32812 61.760414 316.59375 61.86979Q316.75 61.93229 317.53125 62.135414Q318.65625 62.447914 319.09375 62.635414Q319.53125 62.822914 319.78125 63.18229Q320.03125 63.541664 320.03125 64.08854Q320.03125 64.61979 319.71875 65.08854Q319.42188 65.541664 318.84375 65.80729Q318.26562 66.05729 317.53125 66.05729Q316.3125 66.05729 315.67188 65.55729Q315.04688 65.041664 314.875 64.05729ZM326.54688 63.916664L327.64062 64.041664Q327.39062 64.99479 326.6875 65.52604Q325.98438 66.05729 324.90625 66.05729Q323.54688 66.05729 322.73438 65.21354Q321.9375 64.36979 321.9375 62.854164Q321.9375 61.291664 322.75 60.43229Q323.5625 59.55729 324.84375 59.55729Q326.09375 59.55729 326.875 60.40104Q327.67188 61.24479 327.67188 62.791664Q327.67188 62.885414 327.67188 63.072914L323.03125 63.072914Q323.09375 64.104164 323.60938 64.65104Q324.125 65.18229 324.90625 65.18229Q325.48438 65.18229 325.89062 64.885414Q326.3125 64.572914 326.54688 63.916664ZM323.09375 62.21354L326.5625 62.21354Q326.5 61.416664 326.17188 61.02604Q325.65625 60.416664 324.85938 60.416664Q324.125 60.416664 323.625 60.90104Q323.14062 61.385414 323.09375 62.21354ZM336.54688 63.916664L337.64062 64.041664Q337.39062 64.99479 336.6875 65.52604Q335.98438 66.05729 334.90625 66.05729Q333.54688 66.05729 332.73438 65.21354Q331.9375 64.36979 331.9375 62.854164Q331.9375 61.291664 332.75 60.43229Q333.5625 59.55729 334.84375 59.55729Q336.09375 59.55729 336.875 60.40104Q337.67188 61.24479 337.67188 62.791664Q337.67188 62.885414 337.67188 63.072914L333.03125 63.072914Q333.09375 64.104164 333.60938 64.65104Q334.125 65.18229 334.90625 65.18229Q335.48438 65.18229 335.89062 64.885414Q336.3125 64.572914 336.54688 63.916664ZM333.09375 62.21354L336.5625 62.21354Q336.5 61.416664 336.17188 61.02604Q335.65625 60.416664 334.85938 60.416664Q334.125 60.416664 333.625 60.90104Q333.14062 61.385414 333.09375 62.21354ZM344.54688 64.90104L344.54688 65.916664L338.85938 65.916664Q338.85938 65.541664 338.98438 65.18229Q339.20312 64.604164 339.67188 64.041664Q340.15625 63.479164 341.0625 62.74479Q342.46875 61.58854 342.95312 60.916664Q343.45312 60.24479 343.45312 59.65104Q343.45312 59.02604 343.0 58.604164Q342.54688 58.166664 341.82812 58.166664Q341.0625 58.166664 340.60938 58.61979Q340.15625 59.072914 340.14062 59.885414L339.0625 59.77604Q339.17188 58.55729 339.89062 57.93229Q340.625 57.291664 341.85938 57.291664Q343.09375 57.291664 343.8125 57.979164Q344.53125 58.666664 344.53125 59.68229Q344.53125 60.197914 344.3125 60.697914Q344.10938 61.18229 343.60938 61.74479Q343.125 62.291664 342.0 63.24479Q341.04688 64.041664 340.76562 64.33854Q340.5 64.61979 340.32812 64.90104L344.54688 64.90104ZM350.54688 63.916664L351.64062 64.041664Q351.39062 64.99479 350.6875 65.52604Q349.98438 66.05729 348.90625 66.05729Q347.54688 66.05729 346.73438 65.21354Q345.9375 64.36979 345.9375 62.854164Q345.9375 61.291664 346.75 60.43229Q347.5625 59.55729 348.84375 59.55729Q350.09375 59.55729 350.875 60.40104Q351.67188 61.24479 351.67188 62.791664Q351.67188 62.885414 351.67188 63.072914L347.03125 63.072914Q347.09375 64.104164 347.60938 64.65104Q348.125 65.18229 348.90625 65.18229Q349.48438 65.18229 349.89062 64.885414Q350.3125 64.572914 350.54688 63.916664ZM347.09375 62.21354L350.5625 62.21354Q350.5 61.416664 350.17188 61.02604Q349.65625 60.416664 348.85938 60.416664Q348.125 60.416664 347.625 60.90104Q347.14062 61.385414 347.09375 62.21354Z" fill-rule="nonzero"/><path fill="#fbbc04" d="M368.5 56.916668C368.5 56.364384 368.94772 55.916668 369.5 55.916668L379.5 55.916668C380.05228 55.916668 380.5 56.364384 380.5 56.916668L380.5 66.916664C380.5 67.46895 380.05228 67.916664 379.5 67.916664L369.5 67.916664C368.94772 67.916664 368.5 67.46895 368.5 66.916664Z" fill-rule="nonzero"/><path fill="#1a1a1a" d="M391.60938 65.916664L391.60938 58.33854L388.78125 58.33854L388.78125 57.322914L395.59375 57.322914L395.59375 58.33854L392.75 58.33854L392.75 65.916664L391.60938 65.916664ZM400.54688 63.916664L401.64062 64.041664Q401.39062 64.99479 400.6875 65.52604Q399.98438 66.05729 398.90625 66.05729Q397.54688 66.05729 396.73438 65.21354Q395.9375 64.36979 395.9375 62.854164Q395.9375 61.291664 396.75 60.43229Q397.5625 59.55729 398.84375 59.55729Q400.09375 59.55729 400.875 60.40104Q401.67188 61.24479 401.67188 62.791664Q401.67188 62.885414 401.67188 63.072914L397.03125 63.072914Q397.09375 64.104164 397.60938 64.65104Q398.125 65.18229 398.90625 65.18229Q399.48438 65.18229 399.89062 64.885414Q400.3125 64.572914 400.54688 63.916664ZM397.09375 62.21354L400.5625 62.21354Q400.5 61.416664 400.17188 61.02604Q399.65625 60.416664 398.85938 60.416664Q398.125 60.416664 397.625 60.90104Q397.14062 61.385414 397.09375 62.21354ZM403.29688 65.916664L403.29688 59.697914L404.23438 59.697914L404.23438 60.572914Q404.92188 59.55729 406.21875 59.55729Q406.78125 59.55729 407.25 59.760414Q407.73438 59.96354 407.96875 60.291664Q408.20312 60.61979 408.29688 61.05729Q408.34375 61.354164 408.34375 62.08854L408.34375 65.916664L407.29688 65.916664L407.29688 62.135414Q407.29688 61.479164 407.17188 61.166664Q407.04688 60.854164 406.73438 60.666664Q406.42188 60.46354 406.0 60.46354Q405.32812 60.46354 404.82812 60.90104Q404.34375 61.322914 404.34375 62.510414L404.34375 65.916664L403.29688 65.916664ZM409.875 64.05729L410.90625 63.90104Q411.0 64.52604 411.39062 64.854164Q411.79688 65.18229 412.53125 65.18229Q413.25 65.18229 413.59375 64.90104Q413.95312 64.604164 413.95312 64.197914Q413.95312 63.83854 413.64062 63.635414Q413.42188 63.49479 412.5625 63.27604Q411.40625 62.979164 410.95312 62.77604Q410.51562 62.55729 410.28125 62.18229Q410.04688 61.80729 410.04688 61.33854Q410.04688 60.93229 410.23438 60.572914Q410.42188 60.21354 410.75 59.979164Q411.0 59.80729 411.42188 59.68229Q411.84375 59.55729 412.34375 59.55729Q413.0625 59.55729 413.60938 59.77604Q414.17188 59.979164 414.4375 60.33854Q414.70312 60.697914 414.79688 61.291664L413.76562 61.43229Q413.70312 60.96354 413.35938 60.697914Q413.03125 60.416664 412.40625 60.416664Q411.6875 60.416664 411.375 60.666664Q411.0625 60.90104 411.0625 61.229164Q411.0625 61.43229 411.1875 61.58854Q411.32812 61.760414 411.59375 61.86979Q411.75 61.93229 412.53125 62.135414Q413.65625 62.447914 414.09375 62.635414Q414.53125 62.822914 414.78125 63.18229Q415.03125 63.541664 415.03125 64.08854Q415.03125 64.61979 414.71875 65.08854Q414.42188 65.541664 413.84375 65.80729Q413.26562 66.05729 412.53125 66.05729Q411.3125 66.05729 410.67188 65.55729Q410.04688 65.041664 409.875 64.05729ZM416.90625 62.80729Q416.90625 61.072914 417.85938 60.24479Q418.65625 59.55729 419.8125 59.55729Q421.09375 59.55729 421.90625 60.40104Q422.73438 61.229164 422.73438 62.71354Q422.73438 63.916664 422.375 64.604164Q422.01562 65.291664 421.3125 65.68229Q420.625 66.05729 419.8125 66.05729Q418.51562 66.05729 417.70312 65.229164Q416.90625 64.385414 416.90625 62.80729ZM417.98438 62.80729Q417.98438 63.99479 418.5 64.58854Q419.03125 65.18229 419.8125 65.18229Q420.60938 65.18229 421.125 64.58854Q421.64062 63.99479 421.64062 62.77604Q421.64062 61.61979 421.10938 61.02604Q420.59375 60.43229 419.8125 60.43229Q419.03125 60.43229 418.5 61.02604Q417.98438 61.604164 417.98438 62.80729ZM424.28125 65.916664L424.28125 59.697914L425.23438 59.697914L425.23438 60.635414Q425.59375 59.979164 425.89062 59.77604Q426.20312 59.55729 426.57812 59.55729Q427.10938 59.55729 427.65625 59.885414L427.29688 60.86979Q426.90625 60.635414 426.53125 60.635414Q426.17188 60.635414 425.89062 60.854164Q425.625 61.05729 425.51562 61.43229Q425.32812 61.99479 425.32812 62.65104L425.32812 65.916664L424.28125 65.916664ZM428.375 65.916664L428.375 57.322914L431.60938 57.322914Q432.59375 57.322914 433.1875 57.58854Q433.78125 57.854164 434.10938 58.40104Q434.45312 58.93229 434.45312 59.52604Q434.45312 60.072914 434.15625 60.55729Q433.85938 61.041664 433.25 61.33854Q434.03125 61.572914 434.4375 62.135414Q434.85938 62.68229 434.85938 63.43229Q434.85938 64.02604 434.60938 64.55729Q434.35938 65.072914 433.98438 65.354164Q433.60938 65.635414 433.03125 65.77604Q432.46875 65.916664 431.65625 65.916664L428.375 65.916664ZM429.51562 60.93229L431.375 60.93229Q432.125 60.93229 432.45312 60.83854Q432.89062 60.71354 433.10938 60.416664Q433.32812 60.104164 433.32812 59.65104Q433.32812 59.229164 433.125 58.90104Q432.92188 58.572914 432.53125 58.46354Q432.15625 58.33854 431.23438 58.33854L429.51562 58.33854L429.51562 60.93229ZM429.51562 64.90104L431.65625 64.90104Q432.20312 64.90104 432.42188 64.854164Q432.82812 64.791664 433.07812 64.635414Q433.34375 64.46354 433.51562 64.15104Q433.6875 63.83854 433.6875 63.43229Q433.6875 62.947914 433.4375 62.58854Q433.20312 62.229164 432.76562 62.08854Q432.32812 61.947914 431.5 61.947914L429.51562 61.947914L429.51562 64.90104ZM440.35938 65.15104Q439.76562 65.65104 439.21875 65.854164Q438.6875 66.05729 438.0625 66.05729Q437.03125 66.05729 436.48438 65.55729Q435.9375 65.05729 435.9375 64.27604Q435.9375 63.822914 436.14062 63.447914Q436.34375 63.05729 436.6875 62.83854Q437.03125 62.604164 437.45312 62.49479Q437.75 62.40104 438.39062 62.322914Q439.65625 62.18229 440.26562 61.96354Q440.26562 61.74479 440.26562 61.697914Q440.26562 61.041664 439.96875 60.77604Q439.5625 60.43229 438.76562 60.43229Q438.03125 60.43229 437.67188 60.697914Q437.3125 60.947914 437.14062 61.604164L436.10938 61.46354Q436.25 60.80729 436.57812 60.40104Q436.90625 59.99479 437.51562 59.77604Q438.125 59.55729 438.92188 59.55729Q439.71875 59.55729 440.21875 59.74479Q440.71875 59.93229 440.95312 60.21354Q441.1875 60.49479 441.28125 60.93229Q441.32812 61.197914 441.32812 61.90104L441.32812 63.30729Q441.32812 64.77604 441.39062 65.166664Q441.46875 65.55729 441.67188 65.916664L440.5625 65.916664Q440.40625 65.58854 440.35938 65.15104ZM440.26562 62.791664Q439.6875 63.02604 438.54688 63.197914Q437.89062 63.291664 437.625 63.416664Q437.35938 63.52604 437.20312 63.74479Q437.0625 63.96354 437.0625 64.24479Q437.0625 64.666664 437.375 64.947914Q437.70312 65.229164 438.3125 65.229164Q438.92188 65.229164 439.39062 64.96354Q439.875 64.697914 440.09375 64.229164Q440.26562 63.86979 440.26562 63.18229L440.26562 62.791664ZM442.875 64.05729L443.90625 63.90104Q444.0 64.52604 444.39062 64.854164Q444.79688 65.18229 445.53125 65.18229Q446.25 65.18229 446.59375 64.90104Q446.95312 64.604164 446.95312 64.197914Q446.95312 63.83854 446.64062 63.635414Q446.42188 63.49479 445.5625 63.27604Q444.40625 62.979164 443.95312 62.77604Q443.51562 62.55729 443.28125 62.18229Q443.04688 61.80729 443.04688 61.33854Q443.04688 60.93229 443.23438 60.572914Q443.42188 60.21354 443.75 59.979164Q444.0 59.80729 444.42188 59.68229Q444.84375 59.55729 445.34375 59.55729Q446.0625 59.55729 446.60938 59.77604Q447.17188 59.979164 447.4375 60.33854Q447.70312 60.697914 447.79688 61.291664L446.76562 61.43229Q446.70312 60.96354 446.35938 60.697914Q446.03125 60.416664 445.40625 60.416664Q444.6875 60.416664 444.375 60.666664Q444.0625 60.90104 444.0625 61.229164Q444.0625 61.43229 444.1875 61.58854Q444.32812 61.760414 444.59375 61.86979Q444.75 61.93229 445.53125 62.135414Q446.65625 62.447914 447.09375 62.635414Q447.53125 62.822914 447.78125 63.18229Q448.03125 63.541664 448.03125 64.08854Q448.03125 64.61979 447.71875 65.08854Q447.42188 65.541664 446.84375 65.80729Q446.26562 66.05729 445.53125 66.05729Q444.3125 66.05729 443.67188 65.55729Q443.04688 65.041664 442.875 64.05729ZM454.54688 63.916664L455.64062 64.041664Q455.39062 64.99479 454.6875 65.52604Q453.98438 66.05729 452.90625 66.05729Q451.54688 66.05729 450.73438 65.21354Q449.9375 64.36979 449.9375 62.854164Q449.9375 61.291664 450.75 60.43229Q451.5625 59.55729 452.84375 59.55729Q454.09375 59.55729 454.875 60.40104Q455.67188 61.24479 455.67188 62.791664Q455.67188 62.885414 455.67188 63.072914L451.03125 63.072914Q451.09375 64.104164 451.60938 64.65104Q452.125 65.18229 452.90625 65.18229Q453.48438 65.18229 453.89062 64.885414Q454.3125 64.572914 454.54688 63.916664ZM451.09375 62.21354L454.5625 62.21354Q454.5 61.416664 454.17188 61.02604Q453.65625 60.416664 452.85938 60.416664Q452.125 60.416664 451.625 60.90104Q451.14062 61.385414 451.09375 62.21354ZM464.35938 63.635414L465.39062 63.77604Q465.21875 64.83854 464.51562 65.447914Q463.8125 66.05729 462.79688 66.05729Q461.51562 66.05729 460.73438 65.229164Q459.96875 64.385414 459.96875 62.822914Q459.96875 61.822914 460.29688 61.072914Q460.64062 60.30729 461.3125 59.93229Q462.0 59.55729 462.8125 59.55729Q463.8125 59.55729 464.45312 60.072914Q465.10938 60.572914 465.29688 61.52604L464.26562 61.68229Q464.125 61.05729 463.75 60.74479Q463.375 60.416664 462.84375 60.416664Q462.04688 60.416664 461.54688 60.99479Q461.04688 61.55729 461.04688 62.791664Q461.04688 64.05729 461.53125 64.61979Q462.01562 65.18229 462.78125 65.18229Q463.40625 65.18229 463.8125 64.80729Q464.23438 64.43229 464.35938 63.635414ZM465.90625 62.80729Q465.90625 61.072914 466.85938 60.24479Q467.65625 59.55729 468.8125 59.55729Q470.09375 59.55729 470.90625 60.40104Q471.73438 61.229164 471.73438 62.71354Q471.73438 63.916664 471.375 64.604164Q471.01562 65.291664 470.3125 65.68229Q469.625 66.05729 468.8125 66.05729Q467.51562 66.05729 466.70312 65.229164Q465.90625 64.385414 465.90625 62.80729ZM466.98438 62.80729Q466.98438 63.99479 467.5 64.58854Q468.03125 65.18229 468.8125 65.18229Q469.60938 65.18229 470.125 64.58854Q470.64062 63.99479 470.64062 62.77604Q470.64062 61.61979 470.10938 61.02604Q469.59375 60.43229 468.8125 60.43229Q468.03125 60.43229 467.5 61.02604Q466.98438 61.604164 466.98438 62.80729ZM473.28125 65.916664L473.28125 59.697914L474.23438 59.697914L474.23438 60.635414Q474.59375 59.979164 474.89062 59.77604Q475.20312 59.55729 475.57812 59.55729Q476.10938 59.55729 476.65625 59.885414L476.29688 60.86979Q475.90625 60.635414 475.53125 60.635414Q475.17188 60.635414 474.89062 60.854164Q474.625 61.05729 474.51562 61.43229Q474.32812 61.99479 474.32812 62.65104L474.32812 65.916664L473.28125 65.916664ZM481.54688 63.916664L482.64062 64.041664Q482.39062 64.99479 481.6875 65.52604Q480.98438 66.05729 479.90625 66.05729Q478.54688 66.05729 477.73438 65.21354Q476.9375 64.36979 476.9375 62.854164Q476.9375 61.291664 477.75 60.43229Q478.5625 59.55729 479.84375 59.55729Q481.09375 59.55729 481.875 60.40104Q482.67188 61.24479 482.67188 62.791664Q482.67188 62.885414 482.67188 63.072914L478.03125 63.072914Q478.09375 64.104164 478.60938 64.65104Q479.125 65.18229 479.90625 65.18229Q480.48438 65.18229 480.89062 64.885414Q481.3125 64.572914 481.54688 63.916664ZM478.09375 62.21354L481.5625 62.21354Q481.5 61.416664 481.17188 61.02604Q480.65625 60.416664 479.85938 60.416664Q479.125 60.416664 478.625 60.90104Q478.14062 61.385414 478.09375 62.21354Z" fill-rule="nonzero"/><path fill="#757575" d="M112.31563 34.534374L114.20625 35.003124Q113.6125 37.346874 112.06563 38.58125Q110.51875 39.8 108.26875 39.8Q105.95625 39.8 104.50313 38.8625Q103.06563 37.909374 102.3 36.128124Q101.55 34.33125 101.55 32.284374Q101.55 30.05 102.39375 28.39375Q103.25313 26.721874 104.83125 25.8625Q106.40938 24.9875 108.3 24.9875Q110.45625 24.9875 111.90938 26.08125Q113.37813 27.175 113.95625 29.159374L112.09688 29.596874Q111.59688 28.034374 110.64375 27.33125Q109.70625 26.6125 108.26875 26.6125Q106.6125 26.6125 105.50313 27.409374Q104.39375 28.190624 103.94063 29.534374Q103.50313 30.8625 103.50313 32.26875Q103.50313 34.096874 104.03438 35.471874Q104.56563 36.83125 105.69063 37.503124Q106.81563 38.175 108.1125 38.175Q109.70625 38.175 110.81563 37.253124Q111.925 36.33125 112.31563 34.534374ZM115.22188 34.3625Q115.22188 31.4875 116.81563 30.096874Q118.15938 28.940624 120.08125 28.940624Q122.22188 28.940624 123.56563 30.346874Q124.925 31.753124 124.925 34.221874Q124.925 36.221874 124.33125 37.378124Q123.7375 38.51875 122.58125 39.159374Q121.44063 39.784374 120.08125 39.784374Q117.89375 39.784374 116.55 38.39375Q115.22188 36.9875 115.22188 34.3625ZM117.01875 34.3625Q117.01875 36.3625 117.87813 37.346874Q118.75313 38.33125 120.08125 38.33125Q121.39375 38.33125 122.25313 37.346874Q123.12813 36.346874 123.12813 34.3Q123.12813 32.378124 122.25313 31.39375Q121.37813 30.39375 120.08125 30.39375Q118.75313 30.39375 117.87813 31.39375Q117.01875 32.378124 117.01875 34.3625ZM126.8625 39.55L126.8625 29.175L128.44063 29.175L128.44063 30.628124Q128.925 29.878124 129.7375 29.409374Q130.55 28.940624 131.58125 28.940624Q132.7375 28.940624 133.47188 29.425Q134.20625 29.89375 134.51875 30.753124Q135.75313 28.940624 137.72188 28.940624Q139.26875 28.940624 140.09688 29.8Q140.925 30.659374 140.925 32.425L140.925 39.55L139.175 39.55L139.175 33.01875Q139.175 31.95625 139.00313 31.503124Q138.83125 31.034374 138.37813 30.753124Q137.94063 30.471874 137.33125 30.471874Q136.2375 30.471874 135.50313 31.20625Q134.78438 31.925 134.78438 33.51875L134.78438 39.55L133.03438 39.55L133.03438 32.815624Q133.03438 31.64375 132.59688 31.065624Q132.175 30.471874 131.19063 30.471874Q130.45625 30.471874 129.81563 30.8625Q129.19063 31.253124 128.90938 32.003124Q128.62813 32.753124 128.62813 34.175L128.62813 39.55L126.8625 39.55ZM142.8625 43.51875L142.8625 29.175L144.47188 29.175L144.47188 30.51875Q145.03438 29.7375 145.7375 29.346874Q146.45625 28.940624 147.47188 28.940624Q148.8 28.940624 149.81563 29.628124Q150.83125 30.315624 151.34688 31.565624Q151.87813 32.8 151.87813 34.284374Q151.87813 35.878124 151.3 37.159374Q150.7375 38.425 149.64375 39.1125Q148.55 39.784374 147.34688 39.784374Q146.47188 39.784374 145.76875 39.409374Q145.08125 39.034374 144.62813 38.471874L144.62813 43.51875L142.8625 43.51875ZM144.45625 34.425Q144.45625 36.425 145.26875 37.378124Q146.08125 38.33125 147.2375 38.33125Q148.40938 38.33125 149.2375 37.346874Q150.08125 36.3625 150.08125 34.26875Q150.08125 32.3 149.25313 31.315624Q148.44063 30.315624 147.31563 30.315624Q146.19063 30.315624 145.31563 31.378124Q144.45625 32.425 144.45625 34.425ZM160.64375 38.26875Q159.65938 39.096874 158.75313 39.440624Q157.84688 39.784374 156.81563 39.784374Q155.1125 39.784374 154.19063 38.95625Q153.26875 38.1125 153.26875 36.815624Q153.26875 36.05 153.6125 35.425Q153.97188 34.8 154.53438 34.425Q155.09688 34.034374 155.8 33.83125Q156.31563 33.70625 157.3625 33.565624Q159.4875 33.315624 160.4875 32.971874Q160.50313 32.6125 160.50313 32.503124Q160.50313 31.440624 160.00313 30.9875Q159.33125 30.39375 158.00313 30.39375Q156.75313 30.39375 156.15938 30.83125Q155.58125 31.26875 155.3 32.378124L153.58125 32.14375Q153.81563 31.034374 154.34688 30.3625Q154.87813 29.675 155.89375 29.315624Q156.90938 28.940624 158.25313 28.940624Q159.58125 28.940624 160.40938 29.253124Q161.2375 29.565624 161.62813 30.05Q162.01875 30.51875 162.175 31.2375Q162.26875 31.690624 162.26875 32.8625L162.26875 35.20625Q162.26875 37.659374 162.37813 38.315624Q162.4875 38.95625 162.83125 39.55L160.9875 39.55Q160.72188 39.003124 160.64375 38.26875ZM160.4875 34.346874Q159.53438 34.7375 157.6125 35.003124Q156.53438 35.159374 156.08125 35.3625Q155.64375 35.55 155.39375 35.925Q155.14375 36.3 155.14375 36.76875Q155.14375 37.471874 155.675 37.940624Q156.20625 38.409374 157.2375 38.409374Q158.25313 38.409374 159.03438 37.971874Q159.83125 37.51875 160.20625 36.753124Q160.4875 36.14375 160.4875 34.9875L160.4875 34.346874ZM164.84688 39.55L164.84688 29.175L166.425 29.175L166.425 30.753124Q167.03438 29.64375 167.55 29.3Q168.06563 28.940624 168.675 28.940624Q169.56563 28.940624 170.4875 29.503124L169.87813 31.14375Q169.2375 30.753124 168.59688 30.753124Q168.01875 30.753124 167.55 31.1125Q167.09688 31.45625 166.89375 32.065624Q166.6125 33.003124 166.6125 34.1125L166.6125 39.55L164.84688 39.55ZM171.87813 27.253124L171.87813 25.2375L173.64375 25.2375L173.64375 27.253124L171.87813 27.253124ZM171.87813 39.55L171.87813 29.175L173.64375 29.175L173.64375 39.55L171.87813 39.55ZM175.15938 36.45625L176.90938 36.175Q177.05 37.221874 177.72188 37.784374Q178.39375 38.33125 179.59688 38.33125Q180.8 38.33125 181.37813 37.846874Q181.97188 37.346874 181.97188 36.690624Q181.97188 36.096874 181.45625 35.753124Q181.09688 35.51875 179.65938 35.159374Q177.72188 34.659374 176.97188 34.315624Q176.2375 33.95625 175.84688 33.33125Q175.45625 32.690624 175.45625 31.925Q175.45625 31.2375 175.76875 30.64375Q176.09688 30.05 176.64375 29.659374Q177.05 29.3625 177.75313 29.159374Q178.47188 28.940624 179.28438 28.940624Q180.50313 28.940624 181.425 29.3Q182.34688 29.64375 182.78438 30.253124Q183.22188 30.846874 183.39375 31.846874L181.675 32.08125Q181.55 31.284374 180.9875 30.846874Q180.425 30.39375 179.40938 30.39375Q178.19063 30.39375 177.675 30.8Q177.15938 31.190624 177.15938 31.721874Q177.15938 32.065624 177.37813 32.346874Q177.58125 32.628124 178.05 32.815624Q178.31563 32.909374 179.59688 33.253124Q181.47188 33.753124 182.20625 34.08125Q182.94063 34.39375 183.3625 35.003124Q183.78438 35.596874 183.78438 36.503124Q183.78438 37.378124 183.26875 38.159374Q182.75313 38.940624 181.78438 39.3625Q180.81563 39.784374 179.59688 39.784374Q177.58125 39.784374 176.51875 38.940624Q175.45625 38.096874 175.15938 36.45625ZM185.22188 34.3625Q185.22188 31.4875 186.81563 30.096874Q188.15938 28.940624 190.08125 28.940624Q192.22188 28.940624 193.56563 30.346874Q194.925 31.753124 194.925 34.221874Q194.925 36.221874 194.33125 37.378124Q193.7375 38.51875 192.58125 39.159374Q191.44063 39.784374 190.08125 39.784374Q187.89375 39.784374 186.55 38.39375Q185.22188 36.9875 185.22188 34.3625ZM187.01875 34.3625Q187.01875 36.3625 187.87813 37.346874Q188.75313 38.33125 190.08125 38.33125Q191.39375 38.33125 192.25313 37.346874Q193.12813 36.346874 193.12813 34.3Q193.12813 32.378124 192.25313 31.39375Q191.37813 30.39375 190.08125 30.39375Q188.75313 30.39375 187.87813 31.39375Q187.01875 32.378124 187.01875 34.3625ZM196.8625 39.55L196.8625 29.175L198.45625 29.175L198.45625 30.659374Q199.59688 28.940624 201.75313 28.940624Q202.69063 28.940624 203.47188 29.284374Q204.26875 29.6125 204.65938 30.159374Q205.05 30.70625 205.20625 31.45625Q205.3 31.95625 205.3 33.175L205.3 39.55L203.53438 39.55L203.53438 33.2375Q203.53438 32.159374 203.33125 31.628124Q203.12813 31.096874 202.59688 30.784374Q202.08125 30.471874 201.37813 30.471874Q200.25313 30.471874 199.44063 31.190624Q198.62813 31.89375 198.62813 33.878124L198.62813 39.55L196.8625 39.55ZM212.22188 34.3625Q212.22188 31.4875 213.81563 30.096874Q215.15938 28.940624 217.08125 28.940624Q219.22188 28.940624 220.56563 30.346874Q221.925 31.753124 221.925 34.221874Q221.925 36.221874 221.33125 37.378124Q220.7375 38.51875 219.58125 39.159374Q218.44063 39.784374 217.08125 39.784374Q214.89375 39.784374 213.55 38.39375Q212.22188 36.9875 212.22188 34.3625ZM214.01875 34.3625Q214.01875 36.3625 214.87813 37.346874Q215.75313 38.33125 217.08125 38.33125Q218.39375 38.33125 219.25313 37.346874Q220.12813 36.346874 220.12813 34.3Q220.12813 32.378124 219.25313 31.39375Q218.37813 30.39375 217.08125 30.39375Q215.75313 30.39375 214.87813 31.39375Q214.01875 32.378124 214.01875 34.3625ZM223.8625 39.55L223.8625 29.175L225.45625 29.175L225.45625 30.659374Q226.59688 28.940624 228.75313 28.940624Q229.69063 28.940624 230.47188 29.284374Q231.26875 29.6125 231.65938 30.159374Q232.05 30.70625 232.20625 31.45625Q232.3 31.95625 232.3 33.175L232.3 39.55L230.53438 39.55L230.53438 33.2375Q230.53438 32.159374 230.33125 31.628124Q230.12813 31.096874 229.59688 30.784374Q229.08125 30.471874 228.37813 30.471874Q227.25313 30.471874 226.44063 31.190624Q225.62813 31.89375 225.62813 33.878124L225.62813 39.55L223.8625 39.55ZM240.03438 39.55L240.03438 25.2375L242.89375 25.2375L246.26875 35.3625Q246.7375 36.784374 246.95625 37.4875Q247.20625 36.70625 247.72188 35.190624L251.14375 25.2375L253.69063 25.2375L253.69063 39.55L251.87813 39.55L251.87813 27.565624L247.70625 39.55L246.00313 39.55L241.8625 27.3625L241.8625 39.55L240.03438 39.55ZM263.97186 36.20625L265.78436 36.440624Q265.3625 38.01875 264.1906 38.909374Q263.03436 39.784374 261.22186 39.784374Q258.95624 39.784374 257.6125 38.39375Q256.28436 36.9875 256.28436 34.45625Q256.28436 31.83125 257.6281 30.39375Q258.97186 28.940624 261.1281 28.940624Q263.20624 28.940624 264.51874 30.3625Q265.84686 31.76875 265.84686 34.346874Q265.84686 34.503124 265.83124 34.815624L258.09686 34.815624Q258.1906 36.51875 259.0656 37.425Q259.9406 38.33125 261.2375 38.33125Q262.20624 38.33125 262.8781 37.83125Q263.5656 37.315624 263.97186 36.20625ZM258.1906 33.3625L263.9875 33.3625Q263.8781 32.065624 263.33124 31.409374Q262.4875 30.39375 261.14374 30.39375Q259.9406 30.39375 259.1125 31.20625Q258.28436 32.003124 258.1906 33.3625ZM267.8625 39.55L267.8625 29.175L269.4406 29.175L269.4406 30.628124Q269.925 29.878124 270.7375 29.409374Q271.55 28.940624 272.58124 28.940624Q273.7375 28.940624 274.47186 29.425Q275.20624 29.89375 275.51874 30.753124Q276.7531 28.940624 278.72186 28.940624Q280.26874 28.940624 281.09686 29.8Q281.925 30.659374 281.925 32.425L281.925 39.55L280.175 39.55L280.175 33.01875Q280.175 31.95625 280.0031 31.503124Q279.83124 31.034374 279.3781 30.753124Q278.9406 30.471874 278.33124 30.471874Q277.2375 30.471874 276.5031 31.20625Q275.78436 31.925 275.78436 33.51875L275.78436 39.55L274.03436 39.55L274.03436 32.815624Q274.03436 31.64375 273.59686 31.065624Q273.175 30.471874 272.1906 30.471874Q271.45624 30.471874 270.8156 30.8625Q270.1906 31.253124 269.90936 32.003124Q269.6281 32.753124 269.6281 34.175L269.6281 39.55L267.8625 39.55ZM283.22186 34.3625Q283.22186 31.4875 284.8156 30.096874Q286.15936 28.940624 288.08124 28.940624Q290.22186 28.940624 291.5656 30.346874Q292.925 31.753124 292.925 34.221874Q292.925 36.221874 292.33124 37.378124Q291.7375 38.51875 290.58124 39.159374Q289.4406 39.784374 288.08124 39.784374Q285.89374 39.784374 284.55 38.39375Q283.22186 36.9875 283.22186 34.3625ZM285.01874 34.3625Q285.01874 36.3625 285.8781 37.346874Q286.7531 38.33125 288.08124 38.33125Q289.39374 38.33125 290.2531 37.346874Q291.1281 36.346874 291.1281 34.3Q291.1281 32.378124 290.2531 31.39375Q289.3781 30.39375 288.08124 30.39375Q286.7531 30.39375 285.8781 31.39375Q285.01874 32.378124 285.01874 34.3625ZM294.84686 39.55L294.84686 29.175L296.425 29.175L296.425 30.753124Q297.03436 29.64375 297.55 29.3Q298.0656 28.940624 298.675 28.940624Q299.5656 28.940624 300.4875 29.503124L299.8781 31.14375Q299.2375 30.753124 298.59686 30.753124Q298.01874 30.753124 297.55 31.1125Q297.09686 31.45625 296.89374 32.065624Q296.6125 33.003124 296.6125 34.1125L296.6125 39.55L294.84686 39.55ZM301.78436 43.55L301.59686 41.89375Q302.175 42.05 302.59686 42.05Q303.1906 42.05 303.53436 41.846874Q303.89374 41.659374 304.1125 41.315624Q304.28436 41.05 304.65936 40.003124Q304.70624 39.846874 304.8156 39.565624L300.8781 29.175L302.76874 29.175L304.925 35.190624Q305.34686 36.33125 305.675 37.58125Q305.9875 36.378124 306.39374 35.221874L308.6125 29.175L310.3781 29.175L306.425 39.721874Q305.8 41.440624 305.4406 42.08125Q304.97186 42.95625 304.3625 43.346874Q303.76874 43.753124 302.925 43.753124Q302.40936 43.753124 301.78436 43.55ZM318.01874 39.55L318.01874 25.2375L323.39374 25.2375Q325.03436 25.2375 326.01874 25.675Q327.0031 26.096874 327.5656 27.003124Q328.1281 27.909374 328.1281 28.89375Q328.1281 29.815624 327.6281 30.628124Q327.14374 31.440624 326.1281 31.925Q327.425 32.315624 328.1281 33.2375Q328.83124 34.14375 328.83124 35.39375Q328.83124 36.409374 328.39374 37.26875Q327.97186 38.128124 327.34686 38.596874Q326.72186 39.065624 325.78436 39.315624Q324.84686 39.55 323.47186 39.55L318.01874 39.55ZM319.90936 31.253124L323.0031 31.253124Q324.26874 31.253124 324.8156 31.08125Q325.53436 30.8625 325.89374 30.378124Q326.26874 29.878124 326.26874 29.1125Q326.26874 28.409374 325.925 27.8625Q325.58124 27.315624 324.9406 27.128124Q324.3156 26.925 322.76874 26.925L319.90936 26.925L319.90936 31.253124ZM319.90936 37.8625L323.47186 37.8625Q324.39374 37.8625 324.76874 37.784374Q325.425 37.675 325.8625 37.409374Q326.3 37.128124 326.58124 36.6125Q326.8625 36.08125 326.8625 35.39375Q326.8625 34.596874 326.45624 34.003124Q326.05 33.409374 325.3156 33.175Q324.58124 32.940624 323.22186 32.940624L319.90936 32.940624L319.90936 37.8625ZM337.64374 38.26875Q336.65936 39.096874 335.7531 39.440624Q334.84686 39.784374 333.8156 39.784374Q332.1125 39.784374 331.1906 38.95625Q330.26874 38.1125 330.26874 36.815624Q330.26874 36.05 330.6125 35.425Q330.97186 34.8 331.53436 34.425Q332.09686 34.034374 332.8 33.83125Q333.3156 33.70625 334.3625 33.565624Q336.4875 33.315624 337.4875 32.971874Q337.5031 32.6125 337.5031 32.503124Q337.5031 31.440624 337.0031 30.9875Q336.33124 30.39375 335.0031 30.39375Q333.7531 30.39375 333.15936 30.83125Q332.58124 31.26875 332.3 32.378124L330.58124 32.14375Q330.8156 31.034374 331.34686 30.3625Q331.8781 29.675 332.89374 29.315624Q333.90936 28.940624 335.2531 28.940624Q336.58124 28.940624 337.40936 29.253124Q338.2375 29.565624 338.6281 30.05Q339.01874 30.51875 339.175 31.2375Q339.26874 31.690624 339.26874 32.8625L339.26874 35.20625Q339.26874 37.659374 339.3781 38.315624Q339.4875 38.95625 339.83124 39.55L337.9875 39.55Q337.72186 39.003124 337.64374 38.26875ZM337.4875 34.346874Q336.53436 34.7375 334.6125 35.003124Q333.53436 35.159374 333.08124 35.3625Q332.64374 35.55 332.39374 35.925Q332.14374 36.3 332.14374 36.76875Q332.14374 37.471874 332.675 37.940624Q333.20624 38.409374 334.2375 38.409374Q335.2531 38.409374 336.03436 37.971874Q336.83124 37.51875 337.20624 36.753124Q337.4875 36.14375 337.4875 34.9875L337.4875 34.346874ZM341.8625 39.55L341.8625 29.175L343.45624 29.175L343.45624 30.659374Q344.59686 28.940624 346.7531 28.940624Q347.6906 28.940624 348.47186 29.284374Q349.26874 29.6125 349.65936 30.159374Q350.05 30.70625 350.20624 31.45625Q350.3 31.95625 350.3 33.175L350.3 39.55L348.53436 39.55L348.53436 33.2375Q348.53436 32.159374 348.33124 31.628124Q348.1281 31.096874 347.59686 30.784374Q347.08124 30.471874 346.3781 30.471874Q345.2531 30.471874 344.4406 31.190624Q343.6281 31.89375 343.6281 33.878124L343.6281 39.55L341.8625 39.55ZM358.59686 39.55L358.59686 38.2375Q357.6125 39.784374 355.6906 39.784374Q354.45624 39.784374 353.40936 39.096874Q352.3781 38.409374 351.8 37.190624Q351.2375 35.971874 351.2375 34.378124Q351.2375 32.815624 351.7531 31.55Q352.26874 30.284374 353.3 29.6125Q354.34686 28.940624 355.6125 28.940624Q356.55 28.940624 357.28436 29.346874Q358.01874 29.7375 358.4875 30.3625L358.4875 25.2375L360.22186 25.2375L360.22186 39.55L358.59686 39.55ZM353.03436 34.378124Q353.03436 36.3625 353.8781 37.346874Q354.72186 38.33125 355.8625 38.33125Q357.01874 38.33125 357.8156 37.39375Q358.6281 36.45625 358.6281 34.51875Q358.6281 32.39375 357.8 31.39375Q356.9875 30.39375 355.78436 30.39375Q354.6125 30.39375 353.8156 31.3625Q353.03436 32.315624 353.03436 34.378124ZM364.78436 39.55L361.6125 29.175L363.425 29.175L365.08124 35.159374L365.6906 37.39375Q365.7375 37.221874 366.22186 35.253124L367.8781 29.175L369.6906 29.175L371.2375 35.190624L371.7531 37.175L372.34686 35.175L374.1281 29.175L375.83124 29.175L372.59686 39.55L370.76874 39.55L369.1125 33.33125L368.72186 31.565624L366.6125 39.55L364.78436 39.55ZM377.8781 27.253124L377.8781 25.2375L379.64374 25.2375L379.64374 27.253124L377.8781 27.253124ZM377.8781 39.55L377.8781 29.175L379.64374 29.175L379.64374 39.55L377.8781 39.55ZM388.59686 39.55L388.59686 38.2375Q387.6125 39.784374 385.6906 39.784374Q384.45624 39.784374 383.40936 39.096874Q382.3781 38.409374 381.8 37.190624Q381.2375 35.971874 381.2375 34.378124Q381.2375 32.815624 381.7531 31.55Q382.26874 30.284374 383.3 29.6125Q384.34686 28.940624 385.6125 28.940624Q386.55 28.940624 387.28436 29.346874Q388.01874 29.7375 388.4875 30.3625L388.4875 25.2375L390.22186 25.2375L390.22186 39.55L388.59686 39.55ZM383.03436 34.378124Q383.03436 36.3625 383.8781 37.346874Q384.72186 38.33125 385.8625 38.33125Q387.01874 38.33125 387.8156 37.39375Q388.6281 36.45625 388.6281 34.51875Q388.6281 32.39375 387.8 31.39375Q386.9875 30.39375 385.78436 30.39375Q384.6125 30.39375 383.8156 31.3625Q383.03436 32.315624 383.03436 34.378124ZM396.70624 37.971874L396.95624 39.534374Q396.22186 39.690624 395.6281 39.690624Q394.675 39.690624 394.14374 39.39375Q393.6281 39.08125 393.40936 38.596874Q393.1906 38.096874 393.1906 36.51875L393.1906 30.55L391.90936 30.55L391.90936 29.175L393.1906 29.175L393.1906 26.6125L394.9406 25.55L394.9406 29.175L396.70624 29.175L396.70624 30.55L394.9406 30.55L394.9406 36.6125Q394.9406 37.3625 395.03436 37.58125Q395.1281 37.784374 395.33124 37.925Q395.55 38.05 395.9406 38.05Q396.22186 38.05 396.70624 37.971874ZM398.8625 39.55L398.8625 25.2375L400.6281 25.2375L400.6281 30.3625Q401.8625 28.940624 403.7375 28.940624Q404.8781 28.940624 405.72186 29.39375Q406.58124 29.846874 406.9406 30.659374Q407.3156 31.45625 407.3156 32.971874L407.3156 39.55L405.5656 39.55L405.5656 32.971874Q405.5656 31.659374 404.9875 31.065624Q404.40936 30.45625 403.3781 30.45625Q402.59686 30.45625 401.89374 30.8625Q401.20624 31.26875 400.90936 31.971874Q400.6281 32.659374 400.6281 33.878124L400.6281 39.55L398.8625 39.55ZM418.22186 43.753124Q416.76874 41.925 415.76874 39.471874Q414.76874 37.003124 414.76874 34.3625Q414.76874 32.034374 415.51874 29.909374Q416.39374 27.440624 418.22186 24.9875L419.4875 24.9875Q418.3 27.01875 417.925 27.89375Q417.33124 29.2375 416.9875 30.70625Q416.5656 32.534374 416.5656 34.378124Q416.5656 39.065624 419.4875 43.753124L418.22186 43.753124ZM428.8 33.940624L428.8 32.253124L434.8625 32.2375L434.8625 37.55Q433.45624 38.675 431.97186 39.2375Q430.4875 39.8 428.925 39.8Q426.8156 39.8 425.09686 38.89375Q423.3781 37.9875 422.4875 36.284374Q421.6125 34.565624 421.6125 32.45625Q421.6125 30.3625 422.4875 28.565624Q423.3625 26.753124 425.0031 25.878124Q426.64374 24.9875 428.78436 24.9875Q430.33124 24.9875 431.58124 25.4875Q432.84686 25.9875 433.55 26.89375Q434.26874 27.784374 434.64374 29.2375L432.9406 29.70625Q432.6125 28.6125 432.1281 27.9875Q431.65936 27.3625 430.76874 26.9875Q429.8781 26.6125 428.8 26.6125Q427.4875 26.6125 426.53436 27.003124Q425.59686 27.39375 425.01874 28.05Q424.4406 28.690624 424.1125 29.45625Q423.5656 30.784374 423.5656 32.346874Q423.5656 34.253124 424.22186 35.55Q424.89374 36.83125 426.14374 37.45625Q427.40936 38.08125 428.8156 38.08125Q430.05 38.08125 431.22186 37.6125Q432.39374 37.14375 433.0031 36.596874L433.0031 33.940624L428.8 33.940624ZM438.01874 39.55L438.01874 25.2375L443.39374 25.2375Q445.03436 25.2375 446.01874 25.675Q447.0031 26.096874 447.5656 27.003124Q448.1281 27.909374 448.1281 28.89375Q448.1281 29.815624 447.6281 30.628124Q447.14374 31.440624 446.1281 31.925Q447.425 32.315624 448.1281 33.2375Q448.83124 34.14375 448.83124 35.39375Q448.83124 36.409374 448.39374 37.26875Q447.97186 38.128124 447.34686 38.596874Q446.72186 39.065624 445.78436 39.315624Q444.84686 39.55 443.47186 39.55L438.01874 39.55ZM439.90936 31.253124L443.0031 31.253124Q444.26874 31.253124 444.8156 31.08125Q445.53436 30.8625 445.89374 30.378124Q446.26874 29.878124 446.26874 29.1125Q446.26874 28.409374 445.925 27.8625Q445.58124 27.315624 444.9406 27.128124Q444.3156 26.925 442.76874 26.925L439.90936 26.925L439.90936 31.253124ZM439.90936 37.8625L443.47186 37.8625Q444.39374 37.8625 444.76874 37.784374Q445.425 37.675 445.8625 37.409374Q446.3 37.128124 446.58124 36.6125Q446.8625 36.08125 446.8625 35.39375Q446.8625 34.596874 446.45624 34.003124Q446.05 33.409374 445.3156 33.175Q444.58124 32.940624 443.22186 32.940624L439.90936 32.940624L439.90936 37.8625ZM449.55 39.8L453.70624 24.9875L455.1125 24.9875L450.97186 39.8L449.55 39.8ZM456.15936 36.45625L457.90936 36.175Q458.05 37.221874 458.72186 37.784374Q459.39374 38.33125 460.59686 38.33125Q461.8 38.33125 462.3781 37.846874Q462.97186 37.346874 462.97186 36.690624Q462.97186 36.096874 462.45624 35.753124Q462.09686 35.51875 460.65936 35.159374Q458.72186 34.659374 457.97186 34.315624Q457.2375 33.95625 456.84686 33.33125Q456.45624 32.690624 456.45624 31.925Q456.45624 31.2375 456.76874 30.64375Q457.09686 30.05 457.64374 29.659374Q458.05 29.3625 458.7531 29.159374Q459.47186 28.940624 460.28436 28.940624Q461.5031 28.940624 462.425 29.3Q463.34686 29.64375 463.78436 30.253124Q464.22186 30.846874 464.39374 31.846874L462.675 32.08125Q462.55 31.284374 461.9875 30.846874Q461.425 30.39375 460.40936 30.39375Q459.1906 30.39375 458.675 30.8Q458.15936 31.190624 458.15936 31.721874Q458.15936 32.065624 458.3781 32.346874Q458.58124 32.628124 459.05 32.815624Q459.3156 32.909374 460.59686 33.253124Q462.47186 33.753124 463.20624 34.08125Q463.9406 34.39375 464.3625 35.003124Q464.78436 35.596874 464.78436 36.503124Q464.78436 37.378124 464.26874 38.159374Q463.7531 38.940624 462.78436 39.3625Q461.8156 39.784374 460.59686 39.784374Q458.58124 39.784374 457.51874 38.940624Q456.45624 38.096874 456.15936 36.45625ZM473.97186 36.20625L475.78436 36.440624Q475.3625 38.01875 474.1906 38.909374Q473.03436 39.784374 471.22186 39.784374Q468.95624 39.784374 467.6125 38.39375Q466.28436 36.9875 466.28436 34.45625Q466.28436 31.83125 467.6281 30.39375Q468.97186 28.940624 471.1281 28.940624Q473.20624 28.940624 474.51874 30.3625Q475.84686 31.76875 475.84686 34.346874Q475.84686 34.503124 475.83124 34.815624L468.09686 34.815624Q468.1906 36.51875 469.0656 37.425Q469.9406 38.33125 471.2375 38.33125Q472.20624 38.33125 472.8781 37.83125Q473.5656 37.315624 473.97186 36.20625ZM468.1906 33.3625L473.9875 33.3625Q473.8781 32.065624 473.33124 31.409374Q472.4875 30.39375 471.14374 30.39375Q469.9406 30.39375 469.1125 31.20625Q468.28436 32.003124 468.1906 33.3625ZM484.64374 35.753124L486.3625 35.971874Q486.08124 37.76875 484.90936 38.784374Q483.7531 39.784374 482.05 39.784374Q479.925 39.784374 478.6281 38.39375Q477.33124 37.003124 477.33124 34.409374Q477.33124 32.721874 477.8781 31.471874Q478.4406 30.20625 479.58124 29.58125Q480.72186 28.940624 482.0656 28.940624Q483.7531 28.940624 484.8156 29.8Q485.89374 30.659374 486.20624 32.221874L484.4875 32.4875Q484.2531 31.440624 483.6281 30.925Q483.0031 30.39375 482.1281 30.39375Q480.8 30.39375 479.97186 31.346874Q479.14374 32.3 479.14374 34.346874Q479.14374 36.440624 479.9406 37.39375Q480.7375 38.33125 482.03436 38.33125Q483.0656 38.33125 483.7531 37.70625Q484.45624 37.065624 484.64374 35.753124ZM489.01874 43.753124L487.76874 43.753124Q490.675 39.065624 490.675 34.378124Q490.675 32.534374 490.26874 30.7375Q489.925 29.26875 489.33124 27.925Q488.95624 27.034374 487.76874 24.9875L489.01874 24.9875Q490.8625 27.440624 491.7375 29.909374Q492.4875 32.034374 492.4875 34.3625Q492.4875 37.003124 491.47186 39.471874Q490.47186 41.925 489.01874 43.753124Z" fill-rule="nonzero"/></svg>